<?xml version="1.0" encoding="utf-8"?>
<!-- Generator: Adobe Illustrator 16.2.1, SVG Export Plug-In . SVG Version: 6.00 Build 0)  -->
<!DOCTYPE svg PUBLIC "-//W3C//DTD SVG 1.1//EN" "http://www.w3.org/Graphics/SVG/1.1/DTD/svg11.dtd">
<svg version="1.1" id="Layer_1" xmlns="http://www.w3.org/2000/svg" xmlns:xlink="http://www.w3.org/1999/xlink" x="0px" y="0px"
	 width="4459.389px" height="140px" viewBox="0 0 4459.389 140" enable-background="new 0 0 4459.389 140" xml:space="preserve">
<g id="Layer_2" display="none">
	<rect x="-75.75" y="-84.5" display="inline" stroke="#FFFFFF" stroke-miterlimit="10" width="3512" height="391"/>
</g>
<g>
	<rect x="2240.439" y="0.52" fill="#FFFFFF" width="49" height="49"/>
	<path d="M2288.939,1.02v48h-48v-48H2288.939 M2289.939,0.02h-50v50h50V0.02L2289.939,0.02z"/>
</g>
<g>
	<rect x="2345.204" y="0.52" fill="#FFFFFF" width="49" height="49"/>
	<path d="M2393.704,1.02v48h-48v-48H2393.704 M2394.704,0.02h-50v50h50V0.02L2394.704,0.02z"/>
</g>
<g>
	<rect x="1925.358" y="0.526" fill="#FFFFFF" width="49" height="49"/>
	<path d="M1973.858,1.026v48h-48v-48H1973.858 M1974.858,0.026h-50v50h50V0.026L1974.858,0.026z"/>
</g>
<g>
	<rect x="1715.523" y="0.51" fill="#FFFFFF" width="49" height="49"/>
	<path d="M1764.023,1.01v48h-48v-48H1764.023 M1765.023,0.01h-50v50h50V0.01L1765.023,0.01z"/>
</g>
<g>
	<rect x="1505.546" y="0.52" fill="#FFFFFF" width="49" height="49"/>
	<path d="M1554.046,1.02v48h-48v-48H1554.046 M1555.046,0.02h-50v50h50V0.02L1555.046,0.02z"/>
</g>
<path fill="#FFFFFF" d="M0.717,29.994L0,29.31l14.587-14.456L0.004,0.686l0.71-0.693L16,14.848L0.717,29.994z"/>
<path fill="#FFFFFF" d="M55.026-0.007l0.717,0.684L41.156,15.133l14.583,14.168l-0.71,0.693L39.743,15.139L55.026-0.007z"/>
<g transform="translate(70)">
	<path d="M10.203,29.994L9.486,29.31l14.587-14.456L9.49,0.686l0.71-0.693l15.286,14.855L10.203,29.994z"/>
</g>
<g transform="translate(70)">
	<path d="M64.512-0.007l0.717,0.684L50.642,15.133l14.583,14.168l-0.71,0.693L49.229,15.139L64.512-0.007z"/>
</g>
<g transform="translate(140)">
	<path fill="#FFFFFF" d="M16,7.145h7.126V0H16V7.145z M27.44,7.145h7.123V0H27.44V7.145z M38.874,0v7.145H46V0H38.874z M16,18.572
		h7.126V11.43H16V18.572z M27.44,18.572h7.123V11.43H27.44V18.572z M38.875,18.572H46V11.43h-7.125V18.572z M16,30h7.126v-7.14H16
		V30z M27.44,30h7.123v-7.14H27.44V30z M38.875,30H46v-7.14h-7.125V30z"/>
</g>
<g transform="translate(210)">
	<g>
		<path d="M15,29.996c-8.27,0-15-6.73-15-15s6.73-15,15-15s15,6.73,15,15S23.27,29.996,15,29.996z M15,0.963
			c-7.737,0-14.033,6.297-14.033,14.033c0,7.74,6.296,14.03,14.033,14.03c7.74,0,14.03-6.29,14.03-14.03
			C29.03,7.26,22.738,0.963,15,0.963z M8.95,8.394l12.79,12.79l-0.684,0.685L8.266,9.077L8.95,8.394z M21.063,8.4l0.683,0.686
			L8.94,21.862l-0.683-0.685L21.063,8.4z"/>
	</g>
</g>
<g transform="translate(280)">
	<path fill="#FFFFFF" d="M0.666,20L0,19.31l6.633-6.388c-1.366-1.373-2.21-3.246-2.21-5.308C4.424,3.416,7.918,0,12.214,0
		S20,3.416,20,7.614c0,4.198-3.493,7.614-7.788,7.614c-1.836,0-3.526-0.625-4.86-1.668L0.666,20L0.666,20z M12.212,0.96
		c-3.765,0-6.83,2.984-6.83,6.654c0,3.67,3.064,6.655,6.83,6.655c3.767,0,6.83-2.986,6.83-6.656c0-3.67-3.063-6.655-6.83-6.655V0.96
		z"/>
</g>
<g transform="translate(350)">
	<g>
		<path fill="#FFFFFF" d="M15,29.996c-8.27,0-15-6.73-15-15s6.73-15,15-15s15,6.73,15,15S23.27,29.996,15,29.996z M15,0.963
			c-7.737,0-14.033,6.297-14.033,14.033c0,7.738,6.296,14.03,14.033,14.03c7.738,0,14.03-6.292,14.03-14.03
			C29.03,7.26,22.737,0.963,15,0.963z M21.056,21.87L8.266,9.077L8.95,8.393l12.79,12.79L21.056,21.87z M8.943,21.864L8.26,21.18
			l12.8-12.782l0.688,0.684L8.943,21.864z"/>
	</g>
</g>
<g transform="translate(420)">
	<g>
		<path d="M1.012,0.002l28.669,28.666l-1.015,1.014L0,1.014L1.012,0.002z M28.664-0.001l1.013,1.014L1.021,29.692L0,28.679
			L28.664-0.001z"/>
	</g>
</g>
<g transform="translate(490)">
	<g>
		<path d="M2.524,0.002l27.722,27.719l-1.959,1.959L0.564,1.964L2.524,0.002z M28.284,0.002l1.959,1.958L2.53,29.688l-1.96-1.959
			L28.284,0.002z"/>
	</g>
</g>
<g transform="translate(560)">
	<g>
		<path fill="#FFFFFF" d="M35.03,29.683L7.309,1.96L9.28,0.002l27.71,27.719L35.03,29.683z M9.274,29.686l-1.959-1.958L35.026,0.005
			l1.959,1.959L9.274,29.686z"/>
	</g>
</g>
<g transform="translate(630)">
	<g>
		<path fill="#FFFFFF" d="M36.75,29.683L8.084,1.014l1.009-1.012l28.672,28.666L36.75,29.683z M9.108,29.698L8.09,28.683
			L36.74-0.004l1.016,1.012L9.108,29.698z"/>
	</g>
</g>
<g transform="translate(700)">
	<path d="M1,7.145h7.126V0H1V7.145z M12.44,7.145h7.122V0H12.44V7.145z M23.874,0v7.145H31V0H23.874L23.874,0z M1,18.572h7.126
		V11.43H1V18.572z M12.44,18.572h7.122V11.43H12.44V18.572z M23.875,18.572H31V11.43h-7.125V18.572z M1,30h7.126v-7.14H1V30z
		 M12.44,30h7.122v-7.14H12.44V30z M23.875,30H31v-7.14h-7.125V30z"/>
</g>
<g transform="translate(770)">
	<g>
		<path d="M15,29.544c-8.144,0-14.771-6.628-14.771-14.772C0.229,6.625,6.856,0,15,0s14.771,6.626,14.771,14.772
			C29.771,22.916,23.144,29.544,15,29.544z M15,0.953c-7.619,0-13.819,6.2-13.819,13.819S7.38,28.591,15,28.591
			s13.819-6.199,13.819-13.819C28.819,7.153,22.62,0.953,15,0.953z M14.527,12.627h0.957v9.94h-0.957V12.627z M14.527,6.97h0.957
			v2.826h-0.957V6.97z"/>
	</g>
</g>
<g transform="translate(840)" display="none">
	<g display="inline">
		<path fill="#FFFFFF" d="M15,30C6.73,30,0,23.27,0,15C0,6.727,6.73,0,15,0s15,6.728,15,15C30,23.27,23.27,30,15,30z M15,0.968
			C7.264,0.968,0.968,7.263,0.968,15c0,7.736,6.295,14.032,14.032,14.032c7.736,0,14.032-6.294,14.032-14.032
			C29.032,7.263,22.736,0.968,15,0.968z M14.52,12.822h0.979v10.094H14.52V12.822z M14.52,7.077h0.979v2.87H14.52V7.077z"/>
	</g>
</g>
<g transform="translate(910)">
	<path fill="#FFFFFF" d="M-4.275,30.03l-1.922-1.988l9.079-8.741c-1.812-2.048-2.908-4.715-2.908-7.628
		C-0.026,5.234,5.325,0,11.905,0c6.579,0,11.927,5.235,11.927,11.671s-5.349,11.672-11.927,11.672c-2.593,0-4.997-0.815-6.956-2.192
		L-4.275,30.03z M11.905,2.766c-5.052,0-9.163,3.994-9.163,8.904s4.104,8.904,9.163,8.904c5.049,0,9.161-3.994,9.161-8.904
		S16.954,2.766,11.905,2.766z"/>
</g>
<g transform="translate(980)">
	<path d="M-8.108,30.03l-1.922-1.988l9.08-8.741c-1.812-2.048-2.908-4.715-2.908-7.628C-3.858,5.234,1.492,0,8.071,0
		S20,5.235,20,11.671S14.651,23.343,8.071,23.343c-2.593,0-4.996-0.815-6.955-2.192L-8.108,30.03z M8.071,2.766
		c-5.05,0-9.161,3.994-9.161,8.904s4.104,8.904,9.161,8.904c5.05,0,9.159-3.994,9.159-8.904S13.122,2.766,8.071,2.766z"/>
</g>
<g transform="translate(1050)">
	<g>
		<path d="M15,30C6.729,30,0,23.27,0,15S6.729,0,15,0c8.27,0,15,6.73,15,15S23.27,30,15,30z M15,0.967
			C7.262,0.967,0.968,7.262,0.968,15c0,7.736,6.294,14.033,14.032,14.033S29.032,22.736,29.032,15
			C29.032,7.262,22.738,0.967,15,0.967z M14.52,7.083h0.979v15.834H14.52V7.083z M7.084,14.517h15.83v0.967H7.085L7.084,14.517z"/>
	</g>
</g>
<g transform="translate(1120)">
	<g>
		<path fill="#FFFFFF" d="M15,30C6.729,30,0,23.27,0,15S6.729,0,15,0c8.27,0,15,6.73,15,15S23.27,30,15,30z M15,0.967
			C7.262,0.967,0.968,7.262,0.968,15c0,7.736,6.294,14.033,14.032,14.033S29.032,22.736,29.032,15
			C29.032,7.262,22.738,0.967,15,0.967z M14.52,7.083h0.979v15.834H14.52V7.083z M7.084,14.517h15.83v0.967H7.085L7.084,14.517z"/>
	</g>
</g>
<g transform="translate(1190)">
	<g>
		<path fill="#231F20" d="M15.5,30.5c-8.27,0-15-6.73-15-15s6.73-15,15-15s15,6.73,15,15S23.77,30.5,15.5,30.5z M15.5,1.467
			C7.764,1.467,1.468,7.762,1.468,15.5S7.764,29.53,15.5,29.53c7.738,0,14.033-6.294,14.033-14.03S23.238,1.466,15.5,1.467
			L15.5,1.467z M11.168,22.283V8.713l12.316,6.807L11.168,22.283z M12.138,10.355v10.293l9.341-5.13L12.138,10.355z"/>
	</g>
</g>
<g transform="translate(1260)">
	<g>
		<path fill="#FFFFFF" d="M15.5,30.5c-8.27,0-15-6.73-15-15s6.73-15,15-15s15,6.73,15,15S23.77,30.5,15.5,30.5z M15.5,1.467
			C7.764,1.467,1.468,7.762,1.468,15.5S7.764,29.53,15.5,29.53c7.738,0,14.033-6.294,14.033-14.03S23.238,1.466,15.5,1.467
			L15.5,1.467z M11.168,22.283V8.713l12.316,6.807L11.168,22.283z M12.138,10.355v10.293l9.341-5.13L12.138,10.355z"/>
	</g>
</g>
<g transform="translate(1330)">
	<path fill="#A5A8AB" d="M-4.968,31L-6,29.931l10.281-9.902c-2.118-2.128-3.426-5.031-3.426-8.227C0.857,5.295,6.273,0,12.932,0
		C19.584,0,25,5.295,25,11.802c0,6.509-5.415,11.803-12.071,11.803c-2.846,0-5.466-0.97-7.534-2.588L-4.966,31H-4.968z
		 M12.929,1.488c-5.835,0-10.587,4.625-10.587,10.314c0,5.688,4.75,10.316,10.587,10.316c5.838,0,10.586-4.628,10.586-10.316
		c0-5.689-4.751-10.314-10.59-10.314H12.929z"/>
</g>
<g transform="translate(1400)">
	<path d="M50,50L0.062,49.97L0,0h50V50z"/>
	<path fill="#FFFFFF" d="M34.816,29.624c1.979-1.44,3.184-3.3,3.184-5.33C38,19.71,31.92,16,24.408,16
		c-7.508,0-13.592,3.71-13.592,8.294c0,4.58,6.083,8.292,13.592,8.292c1.646,0,3.228-0.187,4.688-0.517l7.7,3.603l-1.979-6.05
		L34.816,29.624L34.816,29.624z"/>
</g>
<g transform="translate(1610)">
	<path d="M50,50L0.062,49.97L0,0h50V50z"/>
	<path fill="#FFFFFF" d="M37.545,17h-25L25.05,27L37.545,17z M25.05,29.784L11.546,19v16h27V19L25.05,29.784z"/>
</g>
<g>
	<path d="M1743.604,15.775c1.104,0,2.271,0.337,2.271,0.337l0.703-4.153c0,0-1.781-0.506-5.029-0.506
		c-2.172,0-3.312,0.685-4.229,1.9c-0.875,1.147-0.812,2.94-0.812,4.146v3h-3.017l0.021,3.992l2.982,0.008v14h4.979v-14h4.021
		l0.521-4.074h-4.521v-3.17C1741.486,16.165,1742.514,15.775,1743.604,15.775z"/>
</g>
<g transform="translate(1820)">
	<path opacity="0.75" fill="#FFFFFF" enable-background="new    " d="M39.264,0.006h50v50h-50V0.006z"/>
	<g>
		<path fill="#231F20" d="M78.527,39.995H51.523v-0.99h26.018V12.908h0.985L78.527,39.995z M75.549,37.015H48.528V9.995H75.55
			L75.549,37.015L75.549,37.015z M49.52,36.025h25.039v-25.04H49.52V36.025z"/>
	</g>
	<path fill="#231F20" d="M55.778,26.233h1.353v-3.498c0-1.258-0.604-1.788-1.359-2.087l1.354-1.62h2.019v7.205h1.229v1.815h-4.589
		v-1.815H55.778z M60.943,26.015v-0.558h2.062v0.336c0,0.272,0.114,0.44,0.337,0.44h3.172V24.42h-2.76v-1.815h2.757v-1.762h-3.095
		c-0.225,0-0.336,0.17-0.336,0.414v0.43h-2.062v-0.623c0-1.335,0.946-2.036,2.11-2.036h3.264c1.062,0,2.188,0.7,2.188,2.036v1.218
		c0,0.7-0.604,1.14-1.104,1.23c0.521,0.078,1.104,0.532,1.104,1.23v1.272c0,1.334-0.939,2.034-2.105,2.034H63.07
		C61.888,28.048,60.943,27.348,60.943,26.015z"/>
</g>
<g>
	<polygon fill="none" points="1950.549,11 1950.549,11 1950.55,11 	"/>
	<path fill="#231F20" d="M1950.549,11.002V11c-7.989,0-12.021,5.73-12.021,10.508c0,2.896,1.095,5.47,3.438,6.432
		c0.387,0.152,0.729,0.004,0.844-0.426c0.079-0.295,0.271-1.04,0.354-1.348c0.104-0.422,0.062-0.57-0.229-0.937
		c-0.685-0.798-1.104-1.836-1.104-3.303c0-4.248,3.188-8.055,8.271-8.055c4.521,0,7,2.76,7,6.448c0,4.85-2.146,8.944-5.326,8.944
		c-1.771,0-3.066-1.455-2.646-3.244c0.511-2.13,1.479-4.43,1.479-5.968c0-1.376-0.729-2.525-2.271-2.525
		c-1.806,0-3.238,1.86-3.238,4.354c0,1.59,0.531,2.664,0.531,2.664l-2.156,9.166c-0.646,2.72-0.104,6.054-0.058,6.394
		c0.021,0.196,0.271,0.244,0.396,0.098c0.167-0.22,2.312-2.867,3.029-5.508c0.205-0.746,1.188-4.623,1.188-4.623
		c0.569,1.116,2.286,2.097,4.104,2.097c5.396,0,9.062-4.928,9.062-11.526C1961.202,15.648,1956.969,11.002,1950.549,11.002z"/>
</g>
<g transform="translate(2030)">
	<path fill="#DE2127" d="M50,50L0.062,49.97L0,0h50V50z"/>
	<path fill="#FFFFFF" d="M26.408,11c-7.99,0-12.021,5.73-12.021,10.508c0,2.896,1.094,5.47,3.442,6.432
		c0.386,0.152,0.729,0.004,0.843-0.426c0.08-0.295,0.266-1.04,0.343-1.348c0.115-0.422,0.07-0.57-0.234-0.937
		c-0.681-0.798-1.104-1.836-1.104-3.303c0-4.248,3.188-8.055,8.28-8.055c4.52,0,7,2.76,7,6.448c0,4.85-2.146,8.944-5.33,8.944
		c-1.771,0-3.08-1.455-2.658-3.244c0.508-2.13,1.479-4.43,1.479-5.968c0-1.376-0.732-2.525-2.271-2.525
		c-1.797,0-3.242,1.86-3.242,4.354c0,1.59,0.535,2.664,0.535,2.664l-2.16,9.166c-0.646,2.72-0.096,6.054-0.052,6.394
		c0.03,0.196,0.284,0.244,0.397,0.098c0.17-0.22,2.312-2.867,3.031-5.508c0.188-0.746,1.188-4.623,1.188-4.623
		c0.58,1.116,2.29,2.097,4.104,2.097c5.403,0,9.071-4.928,9.071-11.526c0.003-4.994-4.226-9.64-10.646-9.64L26.408,11L26.408,11z"/>
</g>
<g transform="translate(2135)">
	<path fill="#68ACD2" d="M50,50L0.062,49.97L0,0h50V50z"/>
	<path fill="#FFFFFF" d="M37.54,16.86c-1.042,0.473-2.163,0.774-3.343,0.875c-0.812-1.083-2.062-1.835-3.512-1.993
		c-2.78-0.303-5.28,1.712-5.591,4.498c-0.058,0.396-0.034,0.785,0.011,1.163c-4.164-0.668-7.664-3.076-9.823-6.403
		c-0.513,0.703-0.86,1.54-0.958,2.467c-0.188,1.75,0.533,3.39,1.79,4.442c-0.82-0.116-1.583-0.43-2.22-0.88l-0.021,0.062
		c-0.271,2.445,1.246,4.673,3.521,5.386c-0.438,0.072-0.896,0.082-1.354,0.033c-0.317-0.035-0.64-0.1-0.938-0.19
		c0.438,2.07,2.146,3.732,4.354,4.012c-1.872,1.167-4.146,1.736-6.497,1.48c-0.406-0.046-0.812-0.112-1.195-0.2
		c2.076,1.67,4.646,2.796,7.486,3.104c9.271,1.008,15.186-6.127,15.896-12.797c0.021-0.22,0.062-0.437,0.062-0.655
		c1.057-0.603,2.014-1.396,2.8-2.335c-0.949,0.304-1.952,0.47-2.979,0.48C36.13,18.9,37.037,18,37.54,16.86z"/>
</g>
<g>
	<polygon fill="none" points="2276.6,16.598 2276.598,16.601 2276.602,16.6 	"/>
	<path d="M2277.598,16.601c-1.041,0.473-2.16,0.773-3.34,0.874c-0.812-1.083-2.062-1.835-3.512-1.993
		c-2.78-0.303-5.28,1.712-5.584,4.498c-0.043,0.396-0.041,0.785,0.004,1.163c-4.164-0.668-7.664-3.076-9.823-6.403
		c-0.513,0.703-0.86,1.54-0.958,2.467c-0.188,1.75,0.533,3.39,1.79,4.442c-0.82-0.116-1.583-0.43-2.22-0.88l-0.021,0.062
		c-0.271,2.445,1.246,4.673,3.521,5.386c-0.438,0.072-0.896,0.082-1.354,0.033c-0.312-0.035-0.64-0.1-0.938-0.19
		c0.434,2.07,2.139,3.732,4.344,4.012c-1.872,1.167-4.144,1.736-6.497,1.479c-0.406-0.046-0.812-0.112-1.195-0.2
		c2.076,1.67,4.646,2.796,7.486,3.104c9.271,1.008,15.186-6.127,15.896-12.797c0.021-0.22,0.058-0.437,0.062-0.655
		c1.057-0.603,2.014-1.396,2.8-2.335c-0.947,0.304-1.949,0.47-2.979,0.48C2276.188,18.636,2277.098,17.736,2277.598,16.601z"/>
</g>
<g>
	<polygon fill="#FFFFFF" points="2379.112,29.624 2379.112,29.624 2379.112,29.621 	"/>
	<path d="M2383.296,24.294c0-4.584-6.08-8.294-13.592-8.294c-7.509,0-13.593,3.71-13.593,8.294c0,4.58,6.082,8.292,13.593,8.292
		c1.646,0,3.228-0.187,4.688-0.517l7.7,3.602l-1.979-6.047l0,0v-0.003v0.002C2382.091,28.184,2383.296,26.324,2383.296,24.294z"/>
</g>
<g transform="translate(2450)">
	<path fill="#3C589A" d="M50,50L0.062,49.97L0,0h50V50z"/>
	<path fill="#FFFFFF" d="M28.61,15.775c1.093,0,2.26,0.337,2.26,0.337l0.702-4.153c0,0-1.78-0.506-5.027-0.506
		c-2.172,0-3.325,0.685-4.243,1.9C21.427,14.5,21.5,16.295,21.5,17.499v3h-3.016l0.021,3.992l2.993,0.008v14h5v-14h4l0.52-4.074
		h-4.521v-3.17C26.493,16.165,27.52,15.775,28.61,15.775L28.61,15.775z"/>
</g>
<g transform="translate(2555)">
	<g>
		<path fill="#FFFFFF" d="M36.268,14.615v2.28h-9.535v-2.28h3.418v-9.23h-3.418v-2.28h9.535v2.28h-3.431v9.23H36.268z M67.561,5.385
			v-2.28h11.746V7.52h-2.479V5.386h-4.762v3.303h3.785v2.207h-3.785v3.72h4.896v-2.42h2.479v4.7H67.562v-2.28h1.854v-9.23
			L67.561,5.385z"/>
		<g>
			<path fill="#FFFFFF" d="M54.082,5.447h-4.52v3.84h4.52c0.63,0,0.822-0.083,0.93-0.184c0.195-0.184,0.398-0.546,0.4-1.787
				c0-1.23-0.2-1.537-0.393-1.71C54.909,5.506,54.707,5.446,54.082,5.447L54.082,5.447z M42,0.008v20h21v-20H42z M55.545,16.896
				c-0.14-0.926-0.225-2.078-0.257-3.535c-0.024-1.077-0.154-1.335-0.41-1.556c-0.24-0.21-0.567-0.277-1.378-0.277h-3.943v5.37
				h-2.853V3.104h8.435c1.049,0,1.736,0.157,2.188,0.606c0.556,0.557,0.887,1.295,0.887,3.315c0,2.46-0.688,3.21-2.278,3.46v0.047
				c1.438,0.286,2.07,0.622,2.146,2.633c0.062,1.753,0.138,2.98,0.218,3.73L55.545,16.896L55.545,16.896z M0,20h21V0H0V20z
				 M4.35,3.17l1.866,10.928h0.048l2.202-10.13C8.598,3.3,8.842,3.131,9.477,3.131h1.438c0.646,0,0.877,0.158,1.01,0.84
				l2.188,10.128h0.054L16.03,3.17h2.64L15.965,16.3c-0.107,0.573-0.325,0.722-0.97,0.722h-1.833c-0.645,0-0.844-0.148-0.971-0.748
				L10.13,6.757h-0.047L8.03,16.274c-0.125,0.6-0.354,0.748-0.968,0.748H5.208c-0.644,0-0.86-0.143-0.968-0.722L1.518,3.17H4.35z"/>
		</g>
		<path fill="#FFFFFF" d="M96.943,5.853c-0.44-0.348-0.881-0.398-1.918-0.398H91.26v9.105h3.766c1.023,0,1.521-0.076,1.938-0.41
			c0.521-0.416,0.771-1.174,0.771-4.134C97.71,7.021,97.475,6.273,96.943,5.853z M84,0.008v20h20v-20H84z M99.055,15.88
			c-0.832,0.737-1.896,1.024-3.852,1.024h-6.795V3.112h6.795c1.95,0,3.02,0.288,3.852,1.024c0.98,0.863,1.454,2.46,1.454,5.872
			C100.509,13.408,100.033,15.018,99.055,15.88L99.055,15.88z"/>
	</g>
</g>
<g>
	<path fill="none" d="M2744.556,11.528h3.944c0.811,0,1.14,0.07,1.378,0.278c0.256,0.22,0.386,0.48,0.41,1.557
		c0.032,1.457,0.118,2.61,0.257,3.535h2.748c-0.08-0.75-0.154-1.98-0.218-3.732v-0.001c-0.072-2.01-0.708-2.347-2.146-2.633v-0.047
		c1.593-0.25,2.28-1,2.28-3.46c0-2.02-0.33-2.758-0.887-3.314c-0.448-0.448-1.139-0.605-2.188-0.605h-8.435v13.792h2.853v-5.37
		H2744.556L2744.556,11.528z M2744.562,5.448h4.52c0.63,0,0.83,0.057,0.938,0.157c0.19,0.174,0.396,0.48,0.396,1.71
		c-0.003,1.242-0.206,1.604-0.398,1.788l0,0c-0.104,0.1-0.303,0.185-0.933,0.185h-4.521L2744.562,5.448L2744.562,5.448z"/>
	<path fill="none" d="M2794.055,4.136c-0.832-0.736-1.896-1.024-3.852-1.024h-6.795v13.792h6.795c1.951,0,3.02-0.287,3.852-1.024
		h-0.001c0.979-0.862,1.455-2.472,1.455-5.872C2795.509,6.596,2795.035,4.999,2794.055,4.136z M2791.943,14.15
		c-0.416,0.334-0.896,0.41-1.918,0.41h-3.771V5.455h3.771c1.037,0,1.478,0.05,1.918,0.398c0.531,0.42,0.767,1.168,0.767,4.163
		C2792.71,12.976,2792.463,13.734,2791.943,14.15z"/>
	<polygon points="2721.732,5.385 2725.15,5.385 2725.15,14.615 2721.732,14.615 2721.732,16.895 2731.268,16.895 2731.268,14.615 
		2727.837,14.615 2727.837,5.385 2731.268,5.385 2731.268,3.105 2721.732,3.105 	"/>
	<path d="M2695,20h21V0h-21V20z M2699.35,3.17l1.866,10.927h0.048l2.202-10.126c0.132-0.67,0.376-0.84,1.009-0.84h1.438
		c0.646,0,0.877,0.157,1.01,0.837l2.193,10.13h0.048l1.875-10.928h2.646l-2.703,13.13c-0.104,0.574-0.324,0.722-0.971,0.722h-1.834
		c-0.646,0-0.848-0.148-0.973-0.748l-2.062-9.517h-0.049l-2.055,9.517c-0.127,0.6-0.354,0.748-0.979,0.748h-1.854
		c-0.646,0-0.854-0.142-0.974-0.722l-2.724-13.13H2699.35z"/>
	<path d="M2737,20.008h21v-20h-21V20.008z M2741.703,3.106h8.435c1.05,0,1.738,0.157,2.188,0.605
		c0.557,0.556,0.887,1.294,0.887,3.314c0,2.46-0.688,3.21-2.28,3.46v0.047c1.438,0.286,2.072,0.623,2.146,2.633v0.001
		c0.062,1.752,0.138,2.982,0.218,3.732h-2.748c-0.139-0.925-0.225-2.078-0.257-3.535c-0.024-1.077-0.154-1.337-0.41-1.557
		c-0.238-0.208-0.567-0.278-1.378-0.278h-3.944v5.37h-2.853V3.106H2741.703z"/>
	<path d="M2750.012,9.103L2750.012,9.103c0.195-0.184,0.398-0.546,0.401-1.788c0-1.23-0.203-1.536-0.396-1.71
		c-0.104-0.1-0.308-0.157-0.938-0.157h-4.521v3.84h4.521C2749.712,9.288,2749.905,9.203,2750.012,9.103z"/>
	<polygon points="2771.958,14.616 2767.066,14.616 2767.066,10.896 2770.852,10.896 2770.852,8.689 2767.066,8.689 2767.066,5.386 
		2771.823,5.386 2771.823,7.52 2774.307,7.52 2774.307,3.105 2762.561,3.105 2762.561,5.385 2764.422,5.386 2764.422,14.616 
		2762.562,14.616 2762.562,16.896 2774.438,16.896 2774.438,12.196 2771.958,12.196 	"/>
	<path d="M2779,0.008v20h20v-20H2779z M2794.055,15.88c-0.832,0.737-1.896,1.024-3.852,1.024h-6.795V3.112h6.795
		c1.949,0,3.02,0.288,3.852,1.024c0.98,0.863,1.454,2.46,1.454,5.872C2795.509,13.408,2795.033,15.018,2794.055,15.88
		L2794.055,15.88z"/>
	<path d="M2791.943,5.853c-0.44-0.348-0.881-0.398-1.918-0.398h-3.771v9.105h3.771c1.021,0,1.502-0.076,1.918-0.41
		c0.52-0.416,0.767-1.174,0.767-4.134C2792.71,7.021,2792.475,6.273,2791.943,5.853z"/>
</g>
<g>
	<path d="M1821.725,14.912c0,0.452-0.137,0.77-0.387,0.955l-5.061,4.958c-0.271,0.268-0.521,0.336-0.904,0.336h-1.944
		c-0.671,0-0.805-0.77-0.312-1.207l4.062-3.77h-7.002c-0.771,0-1.141-0.368-1.141-1.155v-0.302c0-0.787,0.368-1.155,1.141-1.155
		h7.002l-4.062-3.771c-0.485-0.438-0.354-1.208,0.312-1.208h1.944c0.386,0,0.637,0.066,0.904,0.335l5.061,4.959
		c0.251,0.185,0.387,0.503,0.387,0.955V14.912z M1829.881,14.877c0-8.008-6.491-14.5-14.5-14.5c-8.007,0-14.5,6.492-14.5,14.5
		s6.493,14.5,14.5,14.5C1823.39,29.377,1829.881,22.885,1829.881,14.877"/>
</g>
<g>
	<rect x="2835.622" y="-0.354" opacity="0.75" fill="#FFFFFF" enable-background="new    " width="50" height="50"/>
	<path fill="#D24835" d="M2885.622,49.646l-49.938-0.031l-0.062-49.969h50V49.646z"/>
	<g>
		<path fill="#FFFFFF" d="M2873.752,22.636h-3.218v-3.218h-2.589v3.218h-3.229v2.588h3.229v3.217h2.589v-3.217h3.218V22.636z
			 M2861.729,26.532c-0.75-0.529-2.177-1.813-2.177-2.571c0-0.887,0.254-1.322,1.588-2.365c1.363-1.068,2.334-2.57,2.334-4.316
			c0-2.08-0.929-4.104-2.666-4.774h2.621l1.854-1.336h-8.271c-3.705,0-7.188,2.808-7.188,6.059c0,3.323,2.521,6.005,6.296,6.005
			c0.263,0,0.517-0.006,0.767-0.021c-0.238,0.467-0.42,0.995-0.42,1.541c0,0.924,0.496,1.674,1.125,2.286
			c-0.476,0-0.936,0.016-1.434,0.016c-4.594,0-8.122,2.922-8.122,5.955c0,2.982,3.873,4.852,8.46,4.852
			c5.229,0,8.122-2.969,8.122-5.951C2864.617,29.511,2863.911,28.075,2861.729,26.532 M2857.312,22.392
			c-2.129-0.063-4.153-2.383-4.521-5.179s1.062-4.938,3.188-4.874c2.129,0.063,4.154,2.308,4.521,5.104
			C2860.869,20.238,2859.441,22.456,2857.312,22.392 M2856.479,36.538c-3.174,0-5.465-2.006-5.465-4.42
			c0-2.365,2.842-4.334,6.021-4.299c0.729,0.008,1.431,0.127,2.057,0.33c1.721,1.199,2.955,1.875,3.305,3.238
			c0.065,0.277,0.104,0.562,0.104,0.852C2862.493,34.653,2860.938,36.538,2856.479,36.538"/>
	</g>
</g>
<g>
	<rect x="2909.021" y="-0.484" opacity="0.75" fill="#FFFFFF" enable-background="new    " width="50" height="50"/>
	<path fill="#527FA3" d="M2959.021,49.516l-49.938-0.031l-0.062-49.969h50V49.516z"/>
	<g>
		<path fill="#FFFFFF" d="M2943.375,33.09c0,0.371-0.303,0.672-0.674,0.672h-17.305c-0.371,0-0.688-0.301-0.688-0.672V22.61h2.265
			c-0.17,0.616-0.27,1.265-0.27,1.934c0,4.033,3.287,7.313,7.33,7.313c4.041,0,7.33-3.28,7.33-7.313
			c0-0.669-0.096-1.317-0.271-1.934h2.271L2943.375,33.09L2943.375,33.09z M2934.049,19.919c2.562,0,4.635,2.07,4.635,4.624
			c0,2.554-2.062,4.624-4.635,4.624c-2.559,0-4.633-2.068-4.633-4.624C2929.416,21.989,2931.49,19.919,2934.049,19.919
			 M2938.713,15.884c0-0.371,0.301-0.672,0.674-0.672h3.258c0.371,0,0.688,0.301,0.688,0.672v3.252c0,0.371-0.312,0.672-0.688,0.672
			h-3.258c-0.373,0-0.674-0.301-0.674-0.672V15.884L2938.713,15.884z M2943.205,12.466h-18.367c-1.584,0-2.865,1.279-2.865,2.858
			v18.381c0,1.58,1.281,2.857,2.865,2.857h18.367c1.582,0,2.865-1.277,2.865-2.857v-18.38
			C2946.07,13.745,2944.787,12.466,2943.205,12.466"/>
	</g>
</g>
<g>
	<rect x="2981.48" opacity="0.75" fill="#FFFFFF" enable-background="new    " width="50" height="50"/>
	<path fill="#31506D" d="M3031.48,50l-49.938-0.031L2981.48,0h50V50z"/>
	<g>
		<path fill="#FFFFFF" d="M3007.508,10.836v6.906h6.479v4.288h-6.479v7.006c0,1.586,0.084,2.601,0.252,3.05
			c0.166,0.452,0.479,0.811,0.938,1.081c0.602,0.36,1.293,0.54,2.071,0.54c1.384,0,2.759-0.451,4.127-1.35v4.312
			c-1.17,0.548-2.229,0.935-3.188,1.153c-0.938,0.226-1.969,0.335-3.062,0.335c-1.25,0-2.354-0.157-3.312-0.474
			s-1.771-0.767-2.454-1.352c-0.679-0.583-1.146-1.206-1.405-1.861c-0.268-0.658-0.396-1.611-0.396-2.859V22.03h-3.021v-3.865
			c1.074-0.351,1.992-0.851,2.771-1.501c0.765-0.65,1.382-1.432,1.843-2.345c0.463-0.912,0.78-2.073,0.955-3.483H3007.508z"/>
	</g>
</g>
<g>
	<rect x="3050.634" opacity="0.75" fill="#FFFFFF" enable-background="new    " width="50" height="50"/>
	<path fill="#E72C2E" d="M3100.629,50l-49.938-0.031L3050.629,0h50V50z"/>
	<path fill="#FFFFFF" d="M3088.291,19.109c-0.496-1.99-1.431-2.758-3.148-3.035c-0.979-0.146-5.746-0.333-9.521-0.333h0.017
		c-3.771,0-8.521,0.187-9.521,0.333c-1.719,0.277-2.649,1.045-3.147,3.035c-0.166,0.67-0.396,4.338-0.396,5.738v0.307
		c0,1.398,0.229,5.066,0.396,5.736c0.498,1.992,1.438,2.76,3.147,3.035c0.992,0.145,5.748,0.332,9.521,0.332h-0.017
		c3.772,0,8.529-0.188,9.521-0.332c1.729-0.275,2.652-1.043,3.148-3.035c0.168-0.67,0.396-4.338,0.396-5.736v-0.307
		C3088.689,23.447,3088.459,19.779,3088.291,19.109z M3072.916,29.598v-9.582l7.573,4.854L3072.916,29.598z"/>
</g>
<g>
	<polygon points="1542.545,17 1517.545,17 1530.05,27 	"/>
	<polygon points="1516.546,19 1516.546,35 1543.546,35 1543.546,19 1530.05,29.784 	"/>
</g>
<path d="M3179.6,7.268c0,0-1.175,0.636-2.145,0c-0.965-0.634-0.367-1.538,0.403-2.777c0.77-1.237-0.854-1.831-0.854-1.831
	c-1.354-0.647-3.002-1.024-4.763-1.024c-4.701,0-8.513,2.688-8.513,6.006c0,3.319,3.808,6.009,8.513,6.009
	c4.376,0,7.938-2.338,8.451-5.329C3180.971,6.766,3179.6,7.268,3179.6,7.268z M3166.199,9.043c-0.639,0-1.152-0.517-1.152-1.154
	c0-0.635,0.514-1.15,1.152-1.15c0.637,0,1.146,0.516,1.146,1.15C3167.35,8.525,3166.834,9.043,3166.199,9.043z M3167.372,4.949
	c0-0.636,0.519-1.152,1.151-1.152c0.638,0,1.146,0.516,1.146,1.152c0,0.638-0.521,1.153-1.146,1.153
	C3167.89,6.103,3167.372,5.587,3167.372,4.949z M3169.012,11.353c-0.638,0-1.146-0.521-1.146-1.155c0-0.634,0.513-1.155,1.146-1.155
	c0.639,0,1.155,0.52,1.155,1.155C3170.167,10.832,3169.65,11.353,3169.012,11.353z M3172.684,12.403
	c-0.636,0-1.146-0.512-1.146-1.148c0-0.635,0.514-1.153,1.146-1.153c0.646,0,1.155,0.519,1.155,1.153
	C3173.839,11.889,3173.319,12.403,3172.684,12.403z M3173.021,8.041c-0.774,0-1.401-0.461-1.401-1.03
	c0-0.568,0.629-1.024,1.401-1.024c0.768,0,1.396,0.456,1.396,1.024C3174.424,7.58,3173.795,8.041,3173.021,8.041z M3176.508,11.353
	c-0.636,0-1.152-0.521-1.152-1.155c0-0.634,0.521-1.155,1.152-1.155c0.635,0,1.155,0.52,1.155,1.155
	C3177.663,10.832,3177.143,11.353,3176.508,11.353z"/>
<path display="none" fill="#09D809" d="M3231.023,15.56c0-8.284-6.729-15-15-15c-8.284,0-15,6.716-15,15c0,8.284,6.716,15,15,15
	C3224.307,30.56,3231.023,23.844,3231.023,15.56"/>
<path display="none" fill="#FFFFFF" d="M3209.355,19.348c-0.463-0.248-0.646-0.824-0.396-1.285l0.376-0.701
	c0.249-0.463,0.825-0.637,1.288-0.387l4.074,2.733l6.021-10.313c0.271-0.454,0.854-0.613,1.304-0.353l0.688,0.395
	c0.455,0.261,0.613,0.842,0.354,1.297l-6.772,11.381l-0.251,0.467c-0.248,0.462-0.825,0.636-1.287,0.389l-0.062-0.044
	c-0.004-0.003-0.011-0.002-0.017-0.005L3209.355,19.348z"/>
<g display="none">
	<path display="inline" fill="#ED1C24" d="M3273.919,15c0-8.284-6.716-15-15-15s-15,6.715-15,15c0,8.284,6.716,15,15,15
		S3273.919,23.283,3273.919,15"/>
	<path display="inline" fill="#FFFFFF" d="M3261.128,15.145l4.55-4.551c0.432-0.431,0.432-1.127,0-1.556l-0.646-0.652
		c-0.438-0.43-1.127-0.431-1.562,0l-4.552,4.551l-4.551-4.551c-0.432-0.431-1.126-0.43-1.562,0l-0.646,0.653
		c-0.438,0.429-0.438,1.125,0,1.556l4.551,4.551l-4.551,4.549c-0.438,0.431-0.438,1.128,0,1.556l0.646,0.651
		c0.438,0.431,1.127,0.431,1.562,0l4.551-4.551l4.552,4.551c0.438,0.431,1.125,0.431,1.562,0l0.646-0.651
		c0.432-0.428,0.432-1.125,0-1.556L3261.128,15.145z"/>
</g>
<path fill="#09D809" d="M3230.521,15.741c0-8.008-6.493-14.5-14.5-14.5c-8.021,0-14.5,6.492-14.5,14.5c0,8.008,6.479,14.5,14.5,14.5
	C3224.028,30.241,3230.521,23.749,3230.521,15.741"/>
<path fill="#FFFFFF" d="M3209.574,18.977c-0.447-0.24-0.616-0.796-0.375-1.242l0.363-0.678c0.229-0.447,0.798-0.615,1.229-0.374
	l3.938,2.643l5.812-9.969c0.254-0.439,0.812-0.592,1.252-0.341l0.67,0.382c0.438,0.252,0.596,0.814,0.346,1.253l-6.557,11.002
	l-0.238,0.451c-0.229,0.446-0.803,0.614-1.231,0.375l-0.062-0.042c-0.004-0.003-0.01-0.002-0.018-0.005L3209.574,18.977z"/>
<g>
	<path fill="#ED1C24" d="M3268.25,15.741c0-8.008-6.492-14.5-14.5-14.5s-14.5,6.491-14.5,14.5c0,8.008,6.492,14.5,14.5,14.5
		S3268.25,23.748,3268.25,15.741"/>
	<path fill="#FFFFFF" d="M3255.886,15.881l4.397-4.399c0.417-0.417,0.417-1.089,0-1.504l-0.629-0.63
		c-0.417-0.416-1.09-0.417-1.505,0l-4.399,4.399l-4.396-4.399c-0.415-0.417-1.088-0.416-1.505,0l-0.629,0.631
		c-0.417,0.415-0.417,1.087,0,1.504l4.396,4.399l-4.396,4.398c-0.417,0.416-0.417,1.09,0,1.504l0.629,0.629
		c0.417,0.417,1.09,0.417,1.505,0l4.396-4.399l4.399,4.399c0.415,0.417,1.088,0.417,1.505,0l0.629-0.629
		c0.417-0.414,0.417-1.088,0-1.504L3255.886,15.881z"/>
</g>
<g>
	<path fill="#231F20" d="M3351.105,5.386c-5.652-5.652-14.817-5.653-20.479,0c-5.646,5.653-5.646,14.817,0,20.47
		c5.652,5.652,14.812,5.652,20.479,0C3356.759,20.203,3356.757,11.037,3351.105,5.386"/>
	<path fill="#FFFFFF" d="M3342.479,14.211l-0.002-6.209c0-0.588-0.476-1.062-1.062-1.062h-0.888c-0.59,0-1.062,0.475-1.062,1.062
		v6.209h-6.209c-0.588-0.001-1.058,0.474-1.06,1.062l0.002,0.889c-0.002,0.588,0.472,1.062,1.058,1.062l6.209,0.001l0.001,6.208
		c-0.001,0.588,0.479,1.064,1.062,1.061h0.888c0.588,0,1.062-0.475,1.062-1.062v-6.21h6.207c0.592,0.001,1.062-0.475,1.062-1.062
		v-0.888c0.002-0.586-0.476-1.062-1.062-1.061H3342.479z"/>
</g>
<g>
	<path d="M3310.124,5.778h-28.955v32.339h28.955V5.778z M3308.244,36.236h-25.195V7.658h25.195V36.236z"/>
	<path d="M3306.738,9.163h-22.188v22.186h22.188V9.163z M3304.857,29.468h-18.438V11.042h18.438V29.468z"/>
	<polygon points="3294.706,23.641 3295.646,23.641 3296.587,23.641 3296.587,21.195 3299.031,21.195 3299.031,20.255 
		3299.031,19.315 3296.587,19.315 3296.587,16.871 3295.646,16.871 3294.706,16.871 3294.706,19.315 3292.262,19.315 
		3292.262,20.255 3292.262,21.195 3294.706,21.195 	"/>
	<polygon points="3311.629,10.103 3311.629,39.621 3285.494,39.621 3285.494,41.501 3313.509,41.501 3313.509,10.103 	"/>
</g>
<g>
	<g>
		<path d="M3133.273,12.649c-2.061,0-3.726-1.644-3.726-3.665c0-2.02,1.665-3.661,3.726-3.661c2.047,0,3.711,1.642,3.711,3.661
			C3136.984,11.006,3135.32,12.649,3133.273,12.649z M3133.273,6.28c-1.522,0-2.77,1.213-2.77,2.704c0,1.493,1.235,2.708,2.77,2.708
			c1.518,0,2.756-1.215,2.756-2.708C3136.029,7.493,3134.791,6.28,3133.273,6.28z"/>
	</g>
	<g>
		<path d="M3139.837,14.413l-13.074-0.021c-1.079,0-1.961-0.869-1.961-1.936V5.972c0-1.068,0.882-1.936,1.963-1.936h2.274V3.061
			c0-0.813,0.666-1.474,1.488-1.474h5.414c0.812,0,1.479,0.66,1.479,1.474V4.04l2.416,0.019c0.528,0,1.021,0.206,1.396,0.577
			c0.356,0.365,0.562,0.849,0.562,1.359v6.482C3141.801,13.545,3140.92,14.413,3139.837,14.413z M3126.765,4.992
			c-0.556,0-1.005,0.439-1.005,0.979v6.482c0,0.55,0.443,0.979,1.005,0.979l13.072,0.022c0.563,0,1.007-0.43,1.007-0.979v-6.48
			c0-0.257-0.1-0.499-0.283-0.683c-0.188-0.191-0.438-0.298-0.724-0.298l-3.368-0.025V3.061c0-0.284-0.238-0.518-0.527-0.518h-5.416
			c-0.291,0-0.521,0.233-0.521,0.518v1.932L3126.765,4.992L3126.765,4.992z"/>
	</g>
</g>
<g>
	<rect x="2240.439" y="0.52" fill="#FFFFFF" width="49" height="49"/>
	<path d="M2288.939,1.02v48h-48v-48H2288.939 M2289.939,0.02h-50v50h50V0.02L2289.939,0.02z"/>
</g>
<g>
	<rect x="2345.204" y="0.52" fill="#FFFFFF" width="49" height="49"/>
	<path d="M2393.704,1.02v48h-48v-48H2393.704 M2394.704,0.02h-50v50h50V0.02L2394.704,0.02z"/>
</g>
<g>
	<rect x="1925.358" y="0.526" fill="#FFFFFF" width="49" height="49"/>
	<path d="M1973.858,1.026v48h-48v-48H1973.858 M1974.858,0.026h-50v50h50V0.026L1974.858,0.026z"/>
</g>
<g>
	<rect x="1715.523" y="0.51" fill="#FFFFFF" width="49" height="49"/>
	<path d="M1764.023,1.01v48h-48v-48H1764.023 M1765.023,0.01h-50v50h50V0.01L1765.023,0.01z"/>
</g>
<rect x="1505.546" y="0.52" fill="#FFFFFF" width="49" height="49"/>
<path d="M1554.046,1.02v48h-48v-48H1554.046 M1555.046,0.02h-50v50h50V0.02L1555.046,0.02z"/>
<path fill="#FFFFFF" d="M0.717,29.994L0,29.31l14.587-14.456L0.004,0.686l0.71-0.693L16,14.848L0.717,29.994z"/>
<path fill="#FFFFFF" d="M55.026-0.007l0.717,0.684L41.156,15.133l14.583,14.168l-0.71,0.693L39.743,15.139L55.026-0.007z"/>
<g transform="translate(70)">
	<path d="M10.203,29.994L9.486,29.31l14.587-14.456L9.49,0.686l0.71-0.693l15.286,14.855L10.203,29.994z"/>
</g>
<g transform="translate(70)">
	<path d="M64.512-0.007l0.717,0.684L50.642,15.133l14.583,14.168l-0.71,0.693L49.229,15.139L64.512-0.007z"/>
</g>
<g transform="translate(140)">
	<path fill="#FFFFFF" d="M16,7.145h7.126V0H16V7.145z M27.44,7.145h7.123V0H27.44V7.145z M38.874,0v7.145H46V0H38.874z M16,18.572
		h7.126V11.43H16V18.572z M27.44,18.572h7.123V11.43H27.44V18.572z M38.875,18.572H46V11.43h-7.125V18.572z M16,30h7.126v-7.14H16
		V30z M27.44,30h7.123v-7.14H27.44V30z M38.875,30H46v-7.14h-7.125V30z"/>
</g>
<g transform="translate(210)">
	<g>
		<path d="M15,29.996c-8.27,0-15-6.73-15-15s6.73-15,15-15s15,6.73,15,15S23.27,29.996,15,29.996z M15,0.963
			c-7.737,0-14.033,6.297-14.033,14.033c0,7.74,6.296,14.03,14.033,14.03c7.74,0,14.03-6.29,14.03-14.03
			C29.03,7.26,22.738,0.963,15,0.963z M8.95,8.394l12.79,12.79l-0.684,0.685L8.266,9.077L8.95,8.394z M21.063,8.4l0.683,0.686
			L8.94,21.862l-0.683-0.685L21.063,8.4z"/>
	</g>
</g>
<g transform="translate(280)">
	<path fill="#FFFFFF" d="M0.666,20L0,19.31l6.633-6.388c-1.366-1.373-2.21-3.246-2.21-5.308C4.424,3.416,7.918,0,12.214,0
		S20,3.416,20,7.614c0,4.198-3.493,7.614-7.788,7.614c-1.836,0-3.526-0.625-4.86-1.668L0.666,20L0.666,20z M12.212,0.96
		c-3.765,0-6.83,2.984-6.83,6.654c0,3.67,3.064,6.655,6.83,6.655c3.767,0,6.83-2.986,6.83-6.656c0-3.67-3.063-6.655-6.83-6.655V0.96
		z"/>
</g>
<g transform="translate(350)">
	<g>
		<path fill="#FFFFFF" d="M15,29.996c-8.27,0-15-6.73-15-15s6.73-15,15-15s15,6.73,15,15S23.27,29.996,15,29.996z M15,0.963
			c-7.737,0-14.033,6.297-14.033,14.033c0,7.738,6.296,14.03,14.033,14.03c7.738,0,14.03-6.292,14.03-14.03
			C29.03,7.26,22.737,0.963,15,0.963z M21.056,21.87L8.266,9.077L8.95,8.393l12.79,12.79L21.056,21.87z M8.943,21.864L8.26,21.18
			l12.8-12.782l0.688,0.684L8.943,21.864z"/>
	</g>
</g>
<g transform="translate(420)">
	<g>
		<path d="M1.012,0.002l28.669,28.666l-1.015,1.014L0,1.014L1.012,0.002z M28.664-0.001l1.013,1.014L1.021,29.692L0,28.679
			L28.664-0.001z"/>
	</g>
</g>
<g transform="translate(490)">
	<g>
		<path d="M2.524,0.002l27.722,27.719l-1.959,1.959L0.564,1.964L2.524,0.002z M28.284,0.002l1.959,1.958L2.53,29.688l-1.96-1.959
			L28.284,0.002z"/>
	</g>
</g>
<g transform="translate(560)">
	<g>
		<path fill="#FFFFFF" d="M35.03,29.683L7.309,1.96L9.28,0.002l27.71,27.719L35.03,29.683z M9.274,29.686l-1.959-1.958L35.026,0.005
			l1.959,1.959L9.274,29.686z"/>
	</g>
</g>
<g transform="translate(630)">
	<g>
		<path fill="#FFFFFF" d="M36.75,29.683L8.084,1.014l1.009-1.012l28.672,28.666L36.75,29.683z M9.108,29.698L8.09,28.683
			L36.74-0.004l1.016,1.012L9.108,29.698z"/>
	</g>
</g>
<g transform="translate(700)">
	<path d="M1,7.145h7.126V0H1V7.145z M12.44,7.145h7.122V0H12.44V7.145z M23.874,0v7.145H31V0H23.874L23.874,0z M1,18.572h7.126
		V11.43H1V18.572z M12.44,18.572h7.122V11.43H12.44V18.572z M23.875,18.572H31V11.43h-7.125V18.572z M1,30h7.126v-7.14H1V30z
		 M12.44,30h7.122v-7.14H12.44V30z M23.875,30H31v-7.14h-7.125V30z"/>
</g>
<g transform="translate(770)">
	<g>
		<path d="M15,29.544c-8.144,0-14.771-6.628-14.771-14.772C0.229,6.625,6.856,0,15,0s14.771,6.626,14.771,14.772
			C29.771,22.916,23.144,29.544,15,29.544z M15,0.953c-7.619,0-13.819,6.2-13.819,13.819S7.38,28.591,15,28.591
			s13.819-6.199,13.819-13.819C28.819,7.153,22.62,0.953,15,0.953z M14.527,12.627h0.957v9.94h-0.957V12.627z M14.527,6.97h0.957
			v2.826h-0.957V6.97z"/>
	</g>
</g>
<g transform="translate(840)" display="none">
	<g display="inline">
		<path fill="#FFFFFF" d="M15,30C6.73,30,0,23.27,0,15C0,6.727,6.73,0,15,0s15,6.728,15,15C30,23.27,23.27,30,15,30z M15,0.968
			C7.264,0.968,0.968,7.263,0.968,15c0,7.736,6.295,14.032,14.032,14.032c7.736,0,14.032-6.294,14.032-14.032
			C29.032,7.263,22.736,0.968,15,0.968z M14.52,12.822h0.979v10.094H14.52V12.822z M14.52,7.077h0.979v2.87H14.52V7.077z"/>
	</g>
</g>
<g transform="translate(910)">
	<path fill="#FFFFFF" d="M-4.275,30.03l-1.922-1.988l9.079-8.741c-1.812-2.048-2.908-4.715-2.908-7.628
		C-0.026,5.234,5.325,0,11.905,0c6.579,0,11.927,5.235,11.927,11.671s-5.349,11.672-11.927,11.672c-2.593,0-4.997-0.815-6.956-2.192
		L-4.275,30.03z M11.905,2.766c-5.052,0-9.163,3.994-9.163,8.904s4.104,8.904,9.163,8.904c5.049,0,9.161-3.994,9.161-8.904
		S16.954,2.766,11.905,2.766z"/>
</g>
<g transform="translate(980)">
	<path d="M-8.108,30.03l-1.922-1.988l9.08-8.741c-1.812-2.048-2.908-4.715-2.908-7.628C-3.858,5.234,1.492,0,8.071,0
		S20,5.235,20,11.671S14.651,23.343,8.071,23.343c-2.593,0-4.996-0.815-6.955-2.192L-8.108,30.03z M8.071,2.766
		c-5.05,0-9.161,3.994-9.161,8.904s4.104,8.904,9.161,8.904c5.05,0,9.159-3.994,9.159-8.904S13.122,2.766,8.071,2.766z"/>
</g>
<g transform="translate(1050)">
	<g>
		<path d="M15,30C6.729,30,0,23.27,0,15S6.729,0,15,0c8.27,0,15,6.73,15,15S23.27,30,15,30z M15,0.967
			C7.262,0.967,0.968,7.262,0.968,15c0,7.736,6.294,14.033,14.032,14.033S29.032,22.736,29.032,15
			C29.032,7.262,22.738,0.967,15,0.967z M14.52,7.083h0.979v15.834H14.52V7.083z M7.084,14.517h15.83v0.967H7.085L7.084,14.517z"/>
	</g>
</g>
<g transform="translate(1120)">
	<g>
		<path fill="#FFFFFF" d="M15,30C6.729,30,0,23.27,0,15S6.729,0,15,0c8.27,0,15,6.73,15,15S23.27,30,15,30z M15,0.967
			C7.262,0.967,0.968,7.262,0.968,15c0,7.736,6.294,14.033,14.032,14.033S29.032,22.736,29.032,15
			C29.032,7.262,22.738,0.967,15,0.967z M14.52,7.083h0.979v15.834H14.52V7.083z M7.084,14.517h15.83v0.967H7.085L7.084,14.517z"/>
	</g>
</g>
<g transform="translate(1190)">
	<g>
		<path fill="#231F20" d="M15.5,30.5c-8.27,0-15-6.73-15-15s6.73-15,15-15s15,6.73,15,15S23.77,30.5,15.5,30.5z M15.5,1.467
			C7.764,1.467,1.468,7.762,1.468,15.5S7.764,29.53,15.5,29.53c7.738,0,14.033-6.294,14.033-14.03S23.238,1.466,15.5,1.467
			L15.5,1.467z M11.168,22.283V8.713l12.316,6.807L11.168,22.283z M12.138,10.355v10.293l9.341-5.13L12.138,10.355z"/>
	</g>
</g>
<g transform="translate(1260)">
	<g>
		<path fill="#FFFFFF" d="M15.5,30.5c-8.27,0-15-6.73-15-15s6.73-15,15-15s15,6.73,15,15S23.77,30.5,15.5,30.5z M15.5,1.467
			C7.764,1.467,1.468,7.762,1.468,15.5S7.764,29.53,15.5,29.53c7.738,0,14.033-6.294,14.033-14.03S23.238,1.466,15.5,1.467
			L15.5,1.467z M11.168,22.283V8.713l12.316,6.807L11.168,22.283z M12.138,10.355v10.293l9.341-5.13L12.138,10.355z"/>
	</g>
</g>
<g transform="translate(1330)">
	<path fill="#A5A8AB" d="M-4.968,31L-6,29.931l10.281-9.902c-2.118-2.128-3.426-5.031-3.426-8.227C0.857,5.295,6.273,0,12.932,0
		C19.584,0,25,5.295,25,11.802c0,6.509-5.415,11.803-12.071,11.803c-2.846,0-5.466-0.97-7.534-2.588L-4.966,31H-4.968z
		 M12.929,1.488c-5.835,0-10.587,4.625-10.587,10.314c0,5.688,4.75,10.316,10.587,10.316c5.838,0,10.586-4.628,10.586-10.316
		c0-5.689-4.751-10.314-10.59-10.314H12.929z"/>
</g>
<g transform="translate(1400)">
	<path d="M50,50L0.062,49.97L0,0h50V50z"/>
	<path fill="#FFFFFF" d="M34.816,29.624c1.979-1.44,3.184-3.3,3.184-5.33C38,19.71,31.92,16,24.408,16
		c-7.508,0-13.592,3.71-13.592,8.294c0,4.58,6.083,8.292,13.592,8.292c1.646,0,3.228-0.187,4.688-0.517l7.7,3.603l-1.979-6.05
		L34.816,29.624L34.816,29.624z"/>
</g>
<g transform="translate(1610)">
	<path d="M50,50L0.062,49.97L0,0h50V50z"/>
	<path fill="#FFFFFF" d="M37.545,17h-25L25.05,27L37.545,17z M25.05,29.784L11.546,19v16h27V19L25.05,29.784z"/>
</g>
<g>
	<path d="M1743.604,15.775c1.104,0,2.271,0.337,2.271,0.337l0.703-4.153c0,0-1.781-0.506-5.029-0.506
		c-2.172,0-3.312,0.685-4.229,1.9c-0.875,1.147-0.812,2.94-0.812,4.146v3h-3.017l0.021,3.992l2.982,0.008v14h4.979v-14h4.021
		l0.521-4.074h-4.521v-3.17C1741.486,16.165,1742.514,15.775,1743.604,15.775z"/>
</g>
<g transform="translate(1820)">
	<path opacity="0.75" fill="#FFFFFF" enable-background="new    " d="M39.264,0.006h50v50h-50V0.006z"/>
	<g>
		<path fill="#231F20" d="M78.527,39.995H51.523v-0.99h26.018V12.908h0.985L78.527,39.995z M75.549,37.015H48.528V9.995H75.55
			L75.549,37.015L75.549,37.015z M49.52,36.025h25.039v-25.04H49.52V36.025z"/>
	</g>
	<path fill="#231F20" d="M55.778,26.233h1.353v-3.498c0-1.258-0.604-1.788-1.359-2.087l1.354-1.62h2.019v7.205h1.229v1.815h-4.589
		v-1.815H55.778z M60.943,26.015v-0.558h2.062v0.336c0,0.272,0.114,0.44,0.337,0.44h3.172V24.42h-2.76v-1.815h2.757v-1.762h-3.095
		c-0.225,0-0.336,0.17-0.336,0.414v0.43h-2.062v-0.623c0-1.335,0.946-2.036,2.11-2.036h3.264c1.062,0,2.188,0.7,2.188,2.036v1.218
		c0,0.7-0.604,1.14-1.104,1.23c0.521,0.078,1.104,0.532,1.104,1.23v1.272c0,1.334-0.939,2.034-2.105,2.034H63.07
		C61.888,28.048,60.943,27.348,60.943,26.015z"/>
</g>
<g>
	<polygon fill="none" points="1950.549,11 1950.549,11 1950.55,11 	"/>
	<path fill="#231F20" d="M1950.549,11.002V11c-7.989,0-12.021,5.73-12.021,10.508c0,2.896,1.095,5.47,3.438,6.432
		c0.387,0.152,0.729,0.004,0.844-0.426c0.079-0.295,0.271-1.04,0.354-1.348c0.104-0.422,0.062-0.57-0.229-0.937
		c-0.685-0.798-1.104-1.836-1.104-3.303c0-4.248,3.188-8.055,8.271-8.055c4.521,0,7,2.76,7,6.448c0,4.85-2.146,8.944-5.326,8.944
		c-1.771,0-3.066-1.455-2.646-3.244c0.511-2.13,1.479-4.43,1.479-5.968c0-1.376-0.729-2.525-2.271-2.525
		c-1.806,0-3.238,1.86-3.238,4.354c0,1.59,0.531,2.664,0.531,2.664l-2.156,9.166c-0.646,2.72-0.104,6.054-0.058,6.394
		c0.021,0.196,0.271,0.244,0.396,0.098c0.167-0.22,2.312-2.867,3.029-5.508c0.205-0.746,1.188-4.623,1.188-4.623
		c0.569,1.116,2.286,2.097,4.104,2.097c5.396,0,9.062-4.928,9.062-11.526C1961.202,15.648,1956.969,11.002,1950.549,11.002z"/>
</g>
<g transform="translate(2030)">
	<path fill="#DE2127" d="M50,50L0.062,49.97L0,0h50V50z"/>
	<path fill="#FFFFFF" d="M26.408,11c-7.99,0-12.021,5.73-12.021,10.508c0,2.896,1.094,5.47,3.442,6.432
		c0.386,0.152,0.729,0.004,0.843-0.426c0.08-0.295,0.266-1.04,0.343-1.348c0.115-0.422,0.07-0.57-0.234-0.937
		c-0.681-0.798-1.104-1.836-1.104-3.303c0-4.248,3.188-8.055,8.28-8.055c4.52,0,7,2.76,7,6.448c0,4.85-2.146,8.944-5.33,8.944
		c-1.771,0-3.08-1.455-2.658-3.244c0.508-2.13,1.479-4.43,1.479-5.968c0-1.376-0.732-2.525-2.271-2.525
		c-1.797,0-3.242,1.86-3.242,4.354c0,1.59,0.535,2.664,0.535,2.664l-2.16,9.166c-0.646,2.72-0.096,6.054-0.052,6.394
		c0.03,0.196,0.284,0.244,0.397,0.098c0.17-0.22,2.312-2.867,3.031-5.508c0.188-0.746,1.188-4.623,1.188-4.623
		c0.58,1.116,2.29,2.097,4.104,2.097c5.403,0,9.071-4.928,9.071-11.526c0.003-4.994-4.226-9.64-10.646-9.64L26.408,11L26.408,11z"/>
</g>
<g transform="translate(2135)">
	<path fill="#68ACD2" d="M50,50L0.062,49.97L0,0h50V50z"/>
	<path fill="#FFFFFF" d="M37.54,16.86c-1.042,0.473-2.163,0.774-3.343,0.875c-0.812-1.083-2.062-1.835-3.512-1.993
		c-2.78-0.303-5.28,1.712-5.591,4.498c-0.058,0.396-0.034,0.785,0.011,1.163c-4.164-0.668-7.664-3.076-9.823-6.403
		c-0.513,0.703-0.86,1.54-0.958,2.467c-0.188,1.75,0.533,3.39,1.79,4.442c-0.82-0.116-1.583-0.43-2.22-0.88l-0.021,0.062
		c-0.271,2.445,1.246,4.673,3.521,5.386c-0.438,0.072-0.896,0.082-1.354,0.033c-0.317-0.035-0.64-0.1-0.938-0.19
		c0.438,2.07,2.146,3.732,4.354,4.012c-1.872,1.167-4.146,1.736-6.497,1.48c-0.406-0.046-0.812-0.112-1.195-0.2
		c2.076,1.67,4.646,2.796,7.486,3.104c9.271,1.008,15.186-6.127,15.896-12.797c0.021-0.22,0.062-0.437,0.062-0.655
		c1.057-0.603,2.014-1.396,2.8-2.335c-0.949,0.304-1.952,0.47-2.979,0.48C36.13,18.9,37.037,18,37.54,16.86z"/>
</g>
<g>
	<polygon fill="none" points="2276.6,16.598 2276.598,16.601 2276.602,16.6 	"/>
	<path d="M2277.598,16.601c-1.041,0.473-2.16,0.773-3.34,0.874c-0.812-1.083-2.062-1.835-3.512-1.993
		c-2.78-0.303-5.28,1.712-5.584,4.498c-0.043,0.396-0.041,0.785,0.004,1.163c-4.164-0.668-7.664-3.076-9.823-6.403
		c-0.513,0.703-0.86,1.54-0.958,2.467c-0.188,1.75,0.533,3.39,1.79,4.442c-0.82-0.116-1.583-0.43-2.22-0.88l-0.021,0.062
		c-0.271,2.445,1.246,4.673,3.521,5.386c-0.438,0.072-0.896,0.082-1.354,0.033c-0.312-0.035-0.64-0.1-0.938-0.19
		c0.434,2.07,2.139,3.732,4.344,4.012c-1.872,1.167-4.144,1.736-6.497,1.479c-0.406-0.046-0.812-0.112-1.195-0.2
		c2.076,1.67,4.646,2.796,7.486,3.104c9.271,1.008,15.186-6.127,15.896-12.797c0.021-0.22,0.058-0.437,0.062-0.655
		c1.057-0.603,2.014-1.396,2.8-2.335c-0.947,0.304-1.949,0.47-2.979,0.48C2276.188,18.636,2277.098,17.736,2277.598,16.601z"/>
</g>
<g>
	<polygon fill="#FFFFFF" points="2379.112,29.624 2379.112,29.624 2379.112,29.621 	"/>
	<path d="M2383.296,24.294c0-4.584-6.08-8.294-13.592-8.294c-7.509,0-13.593,3.71-13.593,8.294c0,4.58,6.082,8.292,13.593,8.292
		c1.646,0,3.228-0.187,4.688-0.517l7.7,3.602l-1.979-6.047l0,0v-0.003v0.002C2382.091,28.184,2383.296,26.324,2383.296,24.294z"/>
</g>
<g transform="translate(2450)">
	<path fill="#3C589A" d="M50,50L0.062,49.97L0,0h50V50z"/>
	<path fill="#FFFFFF" d="M28.61,15.775c1.093,0,2.26,0.337,2.26,0.337l0.702-4.153c0,0-1.78-0.506-5.027-0.506
		c-2.172,0-3.325,0.685-4.243,1.9C21.427,14.5,21.5,16.295,21.5,17.499v3h-3.016l0.021,3.992l2.993,0.008v14h5v-14h4l0.52-4.074
		h-4.521v-3.17C26.493,16.165,27.52,15.775,28.61,15.775L28.61,15.775z"/>
</g>
<g transform="translate(2555)">
	<g>
		<path fill="#FFFFFF" d="M36.268,14.615v2.28h-9.535v-2.28h3.418v-9.23h-3.418v-2.28h9.535v2.28h-3.431v9.23H36.268z M67.561,5.385
			v-2.28h11.746V7.52h-2.479V5.386h-4.762v3.303h3.785v2.207h-3.785v3.72h4.896v-2.42h2.479v4.7H67.562v-2.28h1.854v-9.23
			L67.561,5.385z"/>
		<g>
			<path fill="#FFFFFF" d="M54.082,5.447h-4.52v3.84h4.52c0.63,0,0.822-0.083,0.93-0.184c0.195-0.184,0.398-0.546,0.4-1.787
				c0-1.23-0.2-1.537-0.393-1.71C54.909,5.506,54.707,5.446,54.082,5.447L54.082,5.447z M42,0.008v20h21v-20H42z M55.545,16.896
				c-0.14-0.926-0.225-2.078-0.257-3.535c-0.024-1.077-0.154-1.335-0.41-1.556c-0.24-0.21-0.567-0.277-1.378-0.277h-3.943v5.37
				h-2.853V3.104h8.435c1.049,0,1.736,0.157,2.188,0.606c0.556,0.557,0.887,1.295,0.887,3.315c0,2.46-0.688,3.21-2.278,3.46v0.047
				c1.438,0.286,2.07,0.622,2.146,2.633c0.062,1.753,0.138,2.98,0.218,3.73L55.545,16.896L55.545,16.896z M0,20h21V0H0V20z
				 M4.35,3.17l1.866,10.928h0.048l2.202-10.13C8.598,3.3,8.842,3.131,9.477,3.131h1.438c0.646,0,0.877,0.158,1.01,0.84
				l2.188,10.128h0.054L16.03,3.17h2.64L15.965,16.3c-0.107,0.573-0.325,0.722-0.97,0.722h-1.833c-0.645,0-0.844-0.148-0.971-0.748
				L10.13,6.757h-0.047L8.03,16.274c-0.125,0.6-0.354,0.748-0.968,0.748H5.208c-0.644,0-0.86-0.143-0.968-0.722L1.518,3.17H4.35z"/>
		</g>
		<path fill="#FFFFFF" d="M96.943,5.853c-0.44-0.348-0.881-0.398-1.918-0.398H91.26v9.105h3.766c1.023,0,1.521-0.076,1.938-0.41
			c0.521-0.416,0.771-1.174,0.771-4.134C97.71,7.021,97.475,6.273,96.943,5.853z M84,0.008v20h20v-20H84z M99.055,15.88
			c-0.832,0.737-1.896,1.024-3.852,1.024h-6.795V3.112h6.795c1.95,0,3.02,0.288,3.852,1.024c0.98,0.863,1.454,2.46,1.454,5.872
			C100.509,13.408,100.033,15.018,99.055,15.88L99.055,15.88z"/>
	</g>
</g>
<g>
	<path fill="none" d="M2744.556,11.528h3.944c0.811,0,1.14,0.07,1.378,0.278c0.256,0.22,0.386,0.48,0.41,1.557
		c0.032,1.457,0.118,2.61,0.257,3.535h2.748c-0.08-0.75-0.154-1.98-0.218-3.732v-0.001c-0.072-2.01-0.708-2.347-2.146-2.633v-0.047
		c1.593-0.25,2.28-1,2.28-3.46c0-2.02-0.33-2.758-0.887-3.314c-0.448-0.448-1.139-0.605-2.188-0.605h-8.435v13.792h2.853v-5.37
		H2744.556L2744.556,11.528z M2744.562,5.448h4.52c0.63,0,0.83,0.057,0.938,0.157c0.19,0.174,0.396,0.48,0.396,1.71
		c-0.003,1.242-0.206,1.604-0.398,1.788l0,0c-0.104,0.1-0.303,0.185-0.933,0.185h-4.521L2744.562,5.448L2744.562,5.448z"/>
	<path fill="none" d="M2794.055,4.136c-0.832-0.736-1.896-1.024-3.852-1.024h-6.795v13.792h6.795c1.951,0,3.02-0.287,3.852-1.024
		h-0.001c0.979-0.862,1.455-2.472,1.455-5.872C2795.509,6.596,2795.035,4.999,2794.055,4.136z M2791.943,14.15
		c-0.416,0.334-0.896,0.41-1.918,0.41h-3.771V5.455h3.771c1.037,0,1.478,0.05,1.918,0.398c0.531,0.42,0.767,1.168,0.767,4.163
		C2792.71,12.976,2792.463,13.734,2791.943,14.15z"/>
	<polygon points="2721.732,5.385 2725.15,5.385 2725.15,14.615 2721.732,14.615 2721.732,16.895 2731.268,16.895 2731.268,14.615 
		2727.837,14.615 2727.837,5.385 2731.268,5.385 2731.268,3.105 2721.732,3.105 	"/>
	<path d="M2695,20h21V0h-21V20z M2699.35,3.17l1.866,10.927h0.048l2.202-10.126c0.132-0.67,0.376-0.84,1.009-0.84h1.438
		c0.646,0,0.877,0.157,1.01,0.837l2.193,10.13h0.048l1.875-10.928h2.646l-2.703,13.13c-0.104,0.574-0.324,0.722-0.971,0.722h-1.834
		c-0.646,0-0.848-0.148-0.973-0.748l-2.062-9.517h-0.049l-2.055,9.517c-0.127,0.6-0.354,0.748-0.979,0.748h-1.854
		c-0.646,0-0.854-0.142-0.974-0.722l-2.724-13.13H2699.35z"/>
	<path d="M2737,20.008h21v-20h-21V20.008z M2741.703,3.106h8.435c1.05,0,1.738,0.157,2.188,0.605
		c0.557,0.556,0.887,1.294,0.887,3.314c0,2.46-0.688,3.21-2.28,3.46v0.047c1.438,0.286,2.072,0.623,2.146,2.633v0.001
		c0.062,1.752,0.138,2.982,0.218,3.732h-2.748c-0.139-0.925-0.225-2.078-0.257-3.535c-0.024-1.077-0.154-1.337-0.41-1.557
		c-0.238-0.208-0.567-0.278-1.378-0.278h-3.944v5.37h-2.853V3.106H2741.703z"/>
	<path d="M2750.012,9.103L2750.012,9.103c0.195-0.184,0.398-0.546,0.401-1.788c0-1.23-0.203-1.536-0.396-1.71
		c-0.104-0.1-0.308-0.157-0.938-0.157h-4.521v3.84h4.521C2749.712,9.288,2749.905,9.203,2750.012,9.103z"/>
	<polygon points="2771.958,14.616 2767.066,14.616 2767.066,10.896 2770.852,10.896 2770.852,8.689 2767.066,8.689 2767.066,5.386 
		2771.823,5.386 2771.823,7.52 2774.307,7.52 2774.307,3.105 2762.561,3.105 2762.561,5.385 2764.422,5.386 2764.422,14.616 
		2762.562,14.616 2762.562,16.896 2774.438,16.896 2774.438,12.196 2771.958,12.196 	"/>
	<path d="M2779,0.008v20h20v-20H2779z M2794.055,15.88c-0.832,0.737-1.896,1.024-3.852,1.024h-6.795V3.112h6.795
		c1.949,0,3.02,0.288,3.852,1.024c0.98,0.863,1.454,2.46,1.454,5.872C2795.509,13.408,2795.033,15.018,2794.055,15.88
		L2794.055,15.88z"/>
	<path d="M2791.943,5.853c-0.44-0.348-0.881-0.398-1.918-0.398h-3.771v9.105h3.771c1.021,0,1.502-0.076,1.918-0.41
		c0.52-0.416,0.767-1.174,0.767-4.134C2792.71,7.021,2792.475,6.273,2791.943,5.853z"/>
</g>
<g>
	<path d="M1821.725,14.912c0,0.452-0.137,0.77-0.387,0.955l-5.061,4.958c-0.271,0.268-0.521,0.336-0.904,0.336h-1.944
		c-0.671,0-0.805-0.77-0.312-1.207l4.062-3.77h-7.002c-0.771,0-1.141-0.368-1.141-1.155v-0.302c0-0.787,0.368-1.155,1.141-1.155
		h7.002l-4.062-3.771c-0.485-0.438-0.354-1.208,0.312-1.208h1.944c0.386,0,0.637,0.066,0.904,0.335l5.061,4.959
		c0.251,0.185,0.387,0.503,0.387,0.955V14.912z M1829.881,14.877c0-8.008-6.491-14.5-14.5-14.5c-8.007,0-14.5,6.492-14.5,14.5
		s6.493,14.5,14.5,14.5C1823.39,29.377,1829.881,22.885,1829.881,14.877"/>
</g>
<g>
	<rect x="2835.622" y="-0.354" opacity="0.75" fill="#FFFFFF" enable-background="new    " width="50" height="50"/>
	<path fill="#D24835" d="M2885.622,49.646l-49.938-0.031l-0.062-49.969h50V49.646z"/>
	<g>
		<path fill="#FFFFFF" d="M2873.752,22.636h-3.218v-3.218h-2.589v3.218h-3.229v2.588h3.229v3.217h2.589v-3.217h3.218V22.636z
			 M2861.729,26.532c-0.75-0.529-2.177-1.813-2.177-2.571c0-0.887,0.254-1.322,1.588-2.365c1.363-1.068,2.334-2.57,2.334-4.316
			c0-2.08-0.929-4.104-2.666-4.774h2.621l1.854-1.336h-8.271c-3.705,0-7.188,2.808-7.188,6.059c0,3.323,2.521,6.005,6.296,6.005
			c0.263,0,0.517-0.006,0.767-0.021c-0.238,0.467-0.42,0.995-0.42,1.541c0,0.924,0.496,1.674,1.125,2.286
			c-0.476,0-0.936,0.016-1.434,0.016c-4.594,0-8.122,2.922-8.122,5.955c0,2.982,3.873,4.852,8.46,4.852
			c5.229,0,8.122-2.969,8.122-5.951C2864.617,29.511,2863.911,28.075,2861.729,26.532 M2857.312,22.392
			c-2.129-0.063-4.153-2.383-4.521-5.179s1.062-4.938,3.188-4.874c2.129,0.063,4.154,2.308,4.521,5.104
			C2860.869,20.238,2859.441,22.456,2857.312,22.392 M2856.479,36.538c-3.174,0-5.465-2.006-5.465-4.42
			c0-2.365,2.842-4.334,6.021-4.299c0.729,0.008,1.431,0.127,2.057,0.33c1.721,1.199,2.955,1.875,3.305,3.238
			c0.065,0.277,0.104,0.562,0.104,0.852C2862.493,34.653,2860.938,36.538,2856.479,36.538"/>
	</g>
</g>
<g>
	<rect x="2909.021" y="-0.484" opacity="0.75" fill="#FFFFFF" enable-background="new    " width="50" height="50"/>
	<path fill="#527FA3" d="M2959.021,49.516l-49.938-0.031l-0.062-49.969h50V49.516z"/>
	<g>
		<path fill="#FFFFFF" d="M2943.375,33.09c0,0.371-0.303,0.672-0.674,0.672h-17.305c-0.371,0-0.688-0.301-0.688-0.672V22.61h2.265
			c-0.17,0.616-0.27,1.265-0.27,1.934c0,4.033,3.287,7.313,7.33,7.313c4.041,0,7.33-3.28,7.33-7.313
			c0-0.669-0.096-1.317-0.271-1.934h2.271L2943.375,33.09L2943.375,33.09z M2934.049,19.919c2.562,0,4.635,2.07,4.635,4.624
			c0,2.554-2.062,4.624-4.635,4.624c-2.559,0-4.633-2.068-4.633-4.624C2929.416,21.989,2931.49,19.919,2934.049,19.919
			 M2938.713,15.884c0-0.371,0.301-0.672,0.674-0.672h3.258c0.371,0,0.688,0.301,0.688,0.672v3.252c0,0.371-0.312,0.672-0.688,0.672
			h-3.258c-0.373,0-0.674-0.301-0.674-0.672V15.884L2938.713,15.884z M2943.205,12.466h-18.367c-1.584,0-2.865,1.279-2.865,2.858
			v18.381c0,1.58,1.281,2.857,2.865,2.857h18.367c1.582,0,2.865-1.277,2.865-2.857v-18.38
			C2946.07,13.745,2944.787,12.466,2943.205,12.466"/>
	</g>
</g>
<g>
	<rect x="2981.48" opacity="0.75" fill="#FFFFFF" enable-background="new    " width="50" height="50"/>
	<path fill="#31506D" d="M3031.48,50l-49.938-0.031L2981.48,0h50V50z"/>
	<g>
		<path fill="#FFFFFF" d="M3007.508,10.836v6.906h6.479v4.288h-6.479v7.006c0,1.586,0.084,2.601,0.252,3.05
			c0.166,0.452,0.479,0.811,0.938,1.081c0.602,0.36,1.293,0.54,2.071,0.54c1.384,0,2.759-0.451,4.127-1.35v4.312
			c-1.17,0.548-2.229,0.935-3.188,1.153c-0.938,0.226-1.969,0.335-3.062,0.335c-1.25,0-2.354-0.157-3.312-0.474
			s-1.771-0.767-2.454-1.352c-0.679-0.583-1.146-1.206-1.405-1.861c-0.268-0.658-0.396-1.611-0.396-2.859V22.03h-3.021v-3.865
			c1.074-0.351,1.992-0.851,2.771-1.501c0.765-0.65,1.382-1.432,1.843-2.345c0.463-0.912,0.78-2.073,0.955-3.483H3007.508z"/>
	</g>
</g>
<g>
	<rect x="3050.634" opacity="0.75" fill="#FFFFFF" enable-background="new    " width="50" height="50"/>
	<path fill="#E72C2E" d="M3100.629,50l-49.938-0.031L3050.629,0h50V50z"/>
	<path fill="#FFFFFF" d="M3088.291,19.109c-0.496-1.99-1.431-2.758-3.148-3.035c-0.979-0.146-5.746-0.333-9.521-0.333h0.017
		c-3.771,0-8.521,0.187-9.521,0.333c-1.719,0.277-2.649,1.045-3.147,3.035c-0.166,0.67-0.396,4.338-0.396,5.738v0.307
		c0,1.398,0.229,5.066,0.396,5.736c0.498,1.992,1.438,2.76,3.147,3.035c0.992,0.145,5.748,0.332,9.521,0.332h-0.017
		c3.772,0,8.529-0.188,9.521-0.332c1.729-0.275,2.652-1.043,3.148-3.035c0.168-0.67,0.396-4.338,0.396-5.736v-0.307
		C3088.689,23.447,3088.459,19.779,3088.291,19.109z M3072.916,29.598v-9.582l7.573,4.854L3072.916,29.598z"/>
</g>
<polygon points="1542.545,17 1517.545,17 1530.05,27 "/>
<polygon points="1516.546,19 1516.546,35 1543.546,35 1543.546,19 1530.05,29.784 "/>
<path d="M3179.6,7.268c0,0-1.175,0.636-2.145,0c-0.965-0.634-0.367-1.538,0.403-2.777c0.77-1.237-0.854-1.831-0.854-1.831
	c-1.354-0.647-3.002-1.024-4.763-1.024c-4.701,0-8.513,2.688-8.513,6.006c0,3.319,3.808,6.009,8.513,6.009
	c4.376,0,7.938-2.338,8.451-5.329C3180.971,6.766,3179.6,7.268,3179.6,7.268z M3166.199,9.043c-0.639,0-1.152-0.517-1.152-1.154
	c0-0.635,0.514-1.15,1.152-1.15c0.637,0,1.146,0.516,1.146,1.15C3167.35,8.525,3166.834,9.043,3166.199,9.043z M3167.372,4.949
	c0-0.636,0.519-1.152,1.151-1.152c0.638,0,1.146,0.516,1.146,1.152c0,0.638-0.521,1.153-1.146,1.153
	C3167.89,6.103,3167.372,5.587,3167.372,4.949z M3169.012,11.353c-0.638,0-1.146-0.521-1.146-1.155c0-0.634,0.513-1.155,1.146-1.155
	c0.639,0,1.155,0.52,1.155,1.155C3170.167,10.832,3169.65,11.353,3169.012,11.353z M3172.684,12.403
	c-0.636,0-1.146-0.512-1.146-1.148c0-0.635,0.514-1.153,1.146-1.153c0.646,0,1.155,0.519,1.155,1.153
	C3173.839,11.889,3173.319,12.403,3172.684,12.403z M3173.021,8.041c-0.774,0-1.401-0.461-1.401-1.03
	c0-0.568,0.629-1.024,1.401-1.024c0.768,0,1.396,0.456,1.396,1.024C3174.424,7.58,3173.795,8.041,3173.021,8.041z M3176.508,11.353
	c-0.636,0-1.152-0.521-1.152-1.155c0-0.634,0.521-1.155,1.152-1.155c0.635,0,1.155,0.52,1.155,1.155
	C3177.663,10.832,3177.143,11.353,3176.508,11.353z"/>
<path display="none" fill="#09D809" d="M3231.023,15.56c0-8.284-6.729-15-15-15c-8.284,0-15,6.716-15,15c0,8.284,6.716,15,15,15
	C3224.307,30.56,3231.023,23.844,3231.023,15.56"/>
<path display="none" fill="#FFFFFF" d="M3209.355,19.348c-0.463-0.248-0.646-0.824-0.396-1.285l0.376-0.701
	c0.249-0.463,0.825-0.637,1.288-0.387l4.074,2.733l6.021-10.313c0.271-0.454,0.854-0.613,1.304-0.353l0.688,0.395
	c0.455,0.261,0.613,0.842,0.354,1.297l-6.772,11.381l-0.251,0.467c-0.248,0.462-0.825,0.636-1.287,0.389l-0.062-0.044
	c-0.004-0.003-0.011-0.002-0.017-0.005L3209.355,19.348z"/>
<g display="none">
	<path display="inline" fill="#ED1C24" d="M3273.919,15c0-8.284-6.716-15-15-15s-15,6.715-15,15c0,8.284,6.716,15,15,15
		S3273.919,23.283,3273.919,15"/>
	<path display="inline" fill="#FFFFFF" d="M3261.128,15.145l4.55-4.551c0.432-0.431,0.432-1.127,0-1.556l-0.646-0.652
		c-0.438-0.43-1.127-0.431-1.562,0l-4.552,4.551l-4.551-4.551c-0.432-0.431-1.126-0.43-1.562,0l-0.646,0.653
		c-0.438,0.429-0.438,1.125,0,1.556l4.551,4.551l-4.551,4.549c-0.438,0.431-0.438,1.128,0,1.556l0.646,0.651
		c0.438,0.431,1.127,0.431,1.562,0l4.551-4.551l4.552,4.551c0.438,0.431,1.125,0.431,1.562,0l0.646-0.651
		c0.432-0.428,0.432-1.125,0-1.556L3261.128,15.145z"/>
</g>
<g>
	<g>
		<path d="M3133.273,12.649c-2.061,0-3.726-1.644-3.726-3.665c0-2.02,1.665-3.661,3.726-3.661c2.047,0,3.711,1.642,3.711,3.661
			C3136.984,11.006,3135.32,12.649,3133.273,12.649z M3133.273,6.28c-1.522,0-2.77,1.213-2.77,2.704c0,1.493,1.235,2.708,2.77,2.708
			c1.518,0,2.756-1.215,2.756-2.708C3136.029,7.493,3134.791,6.28,3133.273,6.28z"/>
	</g>
	<g>
		<path d="M3139.837,14.413l-13.074-0.021c-1.079,0-1.961-0.869-1.961-1.936V5.972c0-1.068,0.882-1.936,1.963-1.936h2.274V3.061
			c0-0.813,0.666-1.474,1.488-1.474h5.414c0.812,0,1.479,0.66,1.479,1.474V4.04l2.416,0.019c0.528,0,1.021,0.206,1.396,0.577
			c0.356,0.365,0.562,0.849,0.562,1.359v6.482C3141.801,13.545,3140.92,14.413,3139.837,14.413z M3126.765,4.992
			c-0.556,0-1.005,0.439-1.005,0.979v6.482c0,0.55,0.443,0.979,1.005,0.979l13.072,0.022c0.563,0,1.007-0.43,1.007-0.979v-6.48
			c0-0.257-0.1-0.499-0.283-0.683c-0.188-0.191-0.438-0.298-0.724-0.298l-3.368-0.025V3.061c0-0.284-0.238-0.518-0.527-0.518h-5.416
			c-0.291,0-0.521,0.233-0.521,0.518v1.932L3126.765,4.992L3126.765,4.992z"/>
	</g>
</g>
<path fill="#FFFFFF" d="M3428.673,7.268c0,0-1.175,0.636-2.145,0c-0.966-0.634-0.367-1.538,0.403-2.777
	c0.77-1.237-0.854-1.831-0.854-1.831c-1.354-0.647-3.002-1.024-4.763-1.024c-4.701,0-8.521,2.688-8.521,6.006
	c0,3.319,3.812,6.009,8.521,6.009c4.376,0,7.934-2.338,8.447-5.329C3430.044,6.766,3428.673,7.268,3428.673,7.268z M3415.271,9.043
	c-0.646,0-1.151-0.517-1.151-1.154c0-0.635,0.514-1.15,1.151-1.15c0.637,0,1.146,0.516,1.146,1.15
	C3416.423,8.525,3415.907,9.043,3415.271,9.043z M3416.445,4.949c0-0.636,0.519-1.152,1.146-1.152c0.646,0,1.153,0.516,1.153,1.152
	c0,0.638-0.521,1.153-1.153,1.153C3416.963,6.103,3416.445,5.587,3416.445,4.949z M3418.085,11.353
	c-0.638,0-1.149-0.521-1.149-1.155c0-0.634,0.521-1.155,1.149-1.155c0.639,0,1.155,0.52,1.155,1.155
	C3419.24,10.832,3418.725,11.353,3418.085,11.353z M3421.757,12.403c-0.636,0-1.146-0.512-1.146-1.148
	c0-0.635,0.514-1.153,1.146-1.153c0.64,0,1.155,0.519,1.155,1.153C3422.912,11.889,3422.393,12.403,3421.757,12.403z
	 M3422.095,8.041c-0.771,0-1.396-0.461-1.396-1.03c0-0.568,0.629-1.024,1.396-1.024c0.771,0,1.396,0.456,1.396,1.024
	C3423.497,7.58,3422.868,8.041,3422.095,8.041z M3425.581,11.353c-0.636,0-1.152-0.521-1.152-1.155c0-0.634,0.521-1.155,1.152-1.155
	s1.155,0.52,1.155,1.155C3426.736,10.832,3426.216,11.353,3425.581,11.353z"/>
<g>
	<g>
		<path fill="#FFFFFF" d="M3382.347,12.649c-2.05,0-3.715-1.644-3.715-3.665c0-2.02,1.665-3.661,3.715-3.661
			c2.048,0,3.711,1.642,3.711,3.661C3386.059,11.006,3384.395,12.649,3382.347,12.649z M3382.347,6.28
			c-1.521,0-2.759,1.213-2.759,2.704c0,1.493,1.235,2.708,2.759,2.708c1.521,0,2.757-1.215,2.757-2.708
			C3385.104,7.493,3383.864,6.28,3382.347,6.28z"/>
	</g>
	<g>
		<path fill="#FFFFFF" d="M3388.91,14.413l-13.074-0.021c-1.079,0-1.961-0.869-1.961-1.936V5.972c0-1.068,0.882-1.936,1.963-1.936
			h2.273V3.061c0-0.813,0.666-1.474,1.479-1.474h5.414c0.812,0,1.479,0.66,1.479,1.474V4.04l2.416,0.019
			c0.523,0,1.021,0.206,1.396,0.577c0.365,0.365,0.564,0.849,0.562,1.359v6.482C3390.874,13.545,3389.993,14.413,3388.91,14.413z
			 M3375.838,4.992c-0.556,0-1.005,0.439-1.005,0.979v6.482c0,0.55,0.443,0.979,1.005,0.979l13.072,0.022
			c0.562,0,1.007-0.43,1.007-0.979v-6.48c0-0.257-0.101-0.499-0.283-0.683c-0.188-0.191-0.446-0.298-0.724-0.298l-3.368-0.025V3.061
			c0-0.284-0.238-0.518-0.527-0.518h-5.416c-0.291,0-0.53,0.233-0.53,0.518v1.932L3375.838,4.992L3375.838,4.992z"/>
	</g>
</g>
<path fill="#FFFFFF" d="M3428.673,7.268c0,0-1.175,0.636-2.145,0c-0.966-0.634-0.367-1.538,0.403-2.777
	c0.77-1.237-0.854-1.831-0.854-1.831c-1.354-0.647-3.002-1.024-4.763-1.024c-4.701,0-8.521,2.688-8.521,6.006
	c0,3.319,3.812,6.009,8.521,6.009c4.376,0,7.934-2.338,8.447-5.329C3430.044,6.766,3428.673,7.268,3428.673,7.268z M3415.271,9.043
	c-0.646,0-1.151-0.517-1.151-1.154c0-0.635,0.514-1.15,1.151-1.15c0.637,0,1.146,0.516,1.146,1.15
	C3416.423,8.525,3415.907,9.043,3415.271,9.043z M3416.445,4.949c0-0.636,0.519-1.152,1.146-1.152c0.646,0,1.153,0.516,1.153,1.152
	c0,0.638-0.521,1.153-1.153,1.153C3416.963,6.103,3416.445,5.587,3416.445,4.949z M3418.085,11.353
	c-0.638,0-1.149-0.521-1.149-1.155c0-0.634,0.521-1.155,1.149-1.155c0.639,0,1.155,0.52,1.155,1.155
	C3419.24,10.832,3418.725,11.353,3418.085,11.353z M3421.757,12.403c-0.636,0-1.146-0.512-1.146-1.148
	c0-0.635,0.514-1.153,1.146-1.153c0.64,0,1.155,0.519,1.155,1.153C3422.912,11.889,3422.393,12.403,3421.757,12.403z
	 M3422.095,8.041c-0.771,0-1.396-0.461-1.396-1.03c0-0.568,0.629-1.024,1.396-1.024c0.771,0,1.396,0.456,1.396,1.024
	C3423.497,7.58,3422.868,8.041,3422.095,8.041z M3425.581,11.353c-0.636,0-1.152-0.521-1.152-1.155c0-0.634,0.521-1.155,1.152-1.155
	s1.155,0.52,1.155,1.155C3426.736,10.832,3426.216,11.353,3425.581,11.353z"/>
<g>
	<g>
		<path fill="#FFFFFF" d="M3382.347,12.649c-2.05,0-3.715-1.644-3.715-3.665c0-2.02,1.665-3.661,3.715-3.661
			c2.048,0,3.711,1.642,3.711,3.661C3386.059,11.006,3384.395,12.649,3382.347,12.649z M3382.347,6.28
			c-1.521,0-2.759,1.213-2.759,2.704c0,1.493,1.235,2.708,2.759,2.708c1.521,0,2.757-1.215,2.757-2.708
			C3385.104,7.493,3383.864,6.28,3382.347,6.28z"/>
	</g>
	<g>
		<path fill="#FFFFFF" d="M3388.91,14.413l-13.074-0.021c-1.079,0-1.961-0.869-1.961-1.936V5.972c0-1.068,0.882-1.936,1.963-1.936
			h2.273V3.061c0-0.813,0.666-1.474,1.479-1.474h5.414c0.812,0,1.479,0.66,1.479,1.474V4.04l2.416,0.019
			c0.523,0,1.021,0.206,1.396,0.577c0.365,0.365,0.564,0.849,0.562,1.359v6.482C3390.874,13.545,3389.993,14.413,3388.91,14.413z
			 M3375.838,4.992c-0.556,0-1.005,0.439-1.005,0.979v6.482c0,0.55,0.443,0.979,1.005,0.979l13.072,0.022
			c0.562,0,1.007-0.43,1.007-0.979v-6.48c0-0.257-0.101-0.499-0.283-0.683c-0.188-0.191-0.446-0.298-0.724-0.298l-3.368-0.025V3.061
			c0-0.284-0.238-0.518-0.527-0.518h-5.416c-0.291,0-0.53,0.233-0.53,0.518v1.932L3375.838,4.992L3375.838,4.992z"/>
	</g>
</g>
<g>
	<g id="Layer_1_3_">
		<g>
			<path fill="#A7A9AC" d="M3467.875,30.881c-8.271,0-15-6.729-15-15s6.729-15,15-15s15,6.729,15,15
				C3482.875,24.153,3476.146,30.881,3467.875,30.881z M3467.875,1.881c-7.72,0-14,6.28-14,14c0,7.72,6.28,14,14,14
				c7.721,0,14-6.28,14-14C3481.875,8.161,3475.596,1.881,3467.875,1.881z M3466.301,23.546h-6.169v-5.953h1v4.243l4.39-4.403
				l0.707,0.705l-4.393,4.408h4.465V23.546L3466.301,23.546z M3470.173,14.386l-0.709-0.706l4.45-4.463h-4.464v-1h6.168v5.952h-1
				V9.927L3470.173,14.386z"/>
			<path fill="#A7A9AC" d="M3467.875,30.881c-8.271,0-15-6.729-15-15s6.729-15,15-15s15,6.729,15,15
				C3482.875,24.153,3476.146,30.881,3467.875,30.881z M3467.875,1.881c-7.72,0-14,6.28-14,14c0,7.72,6.28,14,14,14
				c7.721,0,14-6.28,14-14C3481.875,8.161,3475.596,1.881,3467.875,1.881z M3475.54,23.624h-5.953v-1h4.243l-4.402-4.389
				l0.704-0.709l4.408,4.394v-4.464h1V23.624z M3461.211,14.306h-1V8.138h5.952v1h-4.242l4.459,4.445l-0.706,0.708l-4.463-4.449
				V14.306z"/>
		</g>
	</g>
	<g id="Layer_2_1_">
	</g>
</g>
<g>
	<g id="Layer_1_4_">
		<g>
			<path fill="#FFFFFF" d="M3515.209,30.621c-8.271,0-15-6.729-15-15s6.729-15,15-15s15,6.729,15,15
				C3530.209,23.893,3523.48,30.621,3515.209,30.621z M3515.209,1.621c-7.72,0-14,6.28-14,14c0,7.72,6.28,14,14,14
				c7.721,0,14-6.28,14-14C3529.209,7.9,3522.93,1.621,3515.209,1.621z M3513.635,23.286h-6.169v-5.953h1v4.243l4.39-4.403
				l0.707,0.705l-4.393,4.408h4.465V23.286L3513.635,23.286z M3517.507,14.125l-0.709-0.706l4.45-4.463h-4.464v-1h6.168v5.952h-1
				V9.667L3517.507,14.125z"/>
			<path fill="#FFFFFF" d="M3515.209,30.621c-8.271,0-15-6.729-15-15s6.729-15,15-15s15,6.729,15,15
				C3530.209,23.893,3523.48,30.621,3515.209,30.621z M3515.209,1.621c-7.72,0-14,6.28-14,14c0,7.72,6.28,14,14,14
				c7.721,0,14-6.28,14-14C3529.209,7.9,3522.93,1.621,3515.209,1.621z M3522.874,23.364h-5.953v-1h4.243l-4.402-4.389l0.704-0.709
				l4.408,4.394v-4.464h1V23.364z M3508.545,14.045h-1V7.877h5.952v1h-4.242l4.459,4.445l-0.706,0.708l-4.463-4.449V14.045z"/>
		</g>
	</g>
	<g id="Layer_2_2_">
	</g>
</g>
<polygon fill="#FFFFFF" points="3584.335,11.447 3567.793,11.447 3576.066,18.174 "/>
<g transform="translate(2450)">
	<path fill="#FFFFFF" d="M1209.805,11.042c0.771,0,1.582,0.236,1.582,0.236l0.491-2.907c0,0-1.246-0.354-3.519-0.354
		c-1.521,0-2.328,0.479-2.971,1.33c-0.613,0.803-0.562,2.059-0.562,2.902v2.1h-2.11l0.015,2.795l2.104,0.005v9.8h3.5v-9.8h2.801
		l0.363-2.852h-3.165v-2.219C1208.322,11.315,1209.041,11.042,1209.805,11.042L1209.805,11.042z"/>
</g>
<g transform="translate(2030)">
	<path fill="#FFFFFF" d="M1668.454,7.684c-5.595,0-8.416,4.011-8.416,7.355c0,2.027,0.766,3.829,2.41,4.502
		c0.27,0.106,0.511,0.003,0.59-0.298c0.057-0.207,0.187-0.728,0.239-0.943c0.08-0.295,0.05-0.399-0.168-0.656
		c-0.479-0.559-0.771-1.285-0.771-2.312c0-2.974,2.229-5.638,5.796-5.638c3.164,0,4.9,1.932,4.9,4.513
		c0,3.395-1.502,6.261-3.729,6.261c-1.238,0-2.156-1.019-1.854-2.271c0.354-1.491,1.027-3.104,1.027-4.178
		c0-0.963-0.512-1.768-1.59-1.768c-1.259,0-2.271,1.302-2.271,3.048c0,1.113,0.375,1.865,0.375,1.865l-1.513,6.417
		c-0.451,1.904-0.066,4.237-0.036,4.475c0.021,0.138,0.198,0.171,0.278,0.069c0.113-0.154,1.609-2.007,2.125-3.856
		c0.131-0.521,0.825-3.236,0.825-3.236c0.403,0.782,1.604,1.468,2.873,1.468c3.782,0,6.354-3.449,6.354-8.068
		c0.002-3.496-2.958-6.748-7.452-6.748V7.684H1668.454z"/>
</g>
<g transform="translate(2135)">
	<path fill="#FFFFFF" d="M1611.177,11.802c-0.729,0.332-1.515,0.542-2.34,0.613c-0.569-0.758-1.444-1.285-2.458-1.395
		c-1.947-0.212-3.697,1.198-3.91,3.148c-0.037,0.277-0.027,0.549,0.004,0.814c-2.914-0.467-5.365-2.153-6.877-4.482
		c-0.354,0.492-0.602,1.078-0.67,1.727c-0.133,1.225,0.373,2.373,1.254,3.11c-0.574-0.082-1.104-0.301-1.555-0.616l-0.016,0.043
		c-0.189,1.711,0.873,3.271,2.465,3.77c-0.307,0.05-0.627,0.057-0.947,0.023c-0.223-0.024-0.447-0.069-0.656-0.132
		c0.307,1.449,1.502,2.612,3.047,2.808c-1.311,0.817-2.896,1.215-4.547,1.036c-0.285-0.033-0.568-0.079-0.838-0.141
		c1.453,1.169,3.254,1.958,5.24,2.173c6.49,0.706,10.631-4.289,11.128-8.958c0.015-0.154,0.043-0.306,0.043-0.458
		c0.739-0.422,1.409-0.977,1.96-1.634c-0.664,0.212-1.365,0.329-2.085,0.336C1610.189,13.23,1610.824,12.6,1611.177,11.802z"/>
</g>
<path fill="#FFFFFF" d="M3577.069,20.2c-0.281,0.25-0.64,0.387-1.021,0.387c-0.378,0-0.733-0.137-1.018-0.389l-7.905-6.189v8.357
	c0,0.914,1.03,1.929,1.958,1.929h6.958h7.579c0.928,0,1.396-1.015,1.396-1.929v-8.359L3577.069,20.2z"/>
<path fill="#FFFFFF" d="M3584.409,11.634c-0.271-0.017-0.923-0.017-1.354-0.017h-7.003h-6.958c-0.428,0-1.079,0-1.351,0.017
	c-0.271,0.019-0.452,0.2-0.452,0.448c0,0.255,0.124,0.372,0.261,0.471l8.261,6.255c0.068,0.067,0.168,0.095,0.268,0.093
	c0.097,0.004,0.195-0.023,0.27-0.093l8.259-6.255c0.137-0.098,0.261-0.215,0.261-0.471
	C3584.861,11.834,3584.681,11.653,3584.409,11.634"/>
<path fill="#FFFFFF" d="M3615.803,9.464c-4.973,0.014-9.246,3.078-9.246,6.873c0,2.178,1.408,4.092,3.549,5.344
	c-0.01,1.105-0.639,2.314-1.01,2.939c-0.029,0.068-0.047,0.143-0.047,0.223c0,0.311,0.258,0.561,0.574,0.561
	c0.051,0,0.125-0.008,0.154-0.008c0.006,0,0.01,0,0.01,0.002c1.752-0.281,3.66-1.65,4.377-2.326c0.533,0.08,1.08,0.127,1.639,0.139
	c4.74,0.072,9.248-3.176,9.248-6.971C3625.051,12.445,3620.658,9.455,3615.803,9.464"/>
<polygon fill="#FFFFFF" points="3769.02,9.717 3769.02,21.717 3778.239,15.717 "/>
<g>
	<g>
		<g>
			<g>
				<g>
					<defs>
						<path id="SVGID_1_" d="M3896.964,9.463v9.105h3.771c1.02,0,1.502-0.077,1.918-0.411c0.52-0.415,0.767-1.173,0.767-4.135
							c0-2.993-0.231-3.742-0.767-4.162c-0.441-0.349-0.882-0.398-1.918-0.398L3896.964,9.463L3896.964,9.463z M3855.268,9.455
							v3.841h4.521c0.633,0,0.825-0.085,0.934-0.185c0.194-0.185,0.397-0.547,0.401-1.79c0-1.229-0.202-1.535-0.396-1.708
							c-0.104-0.101-0.311-0.158-0.938-0.158H3855.268z M3832.441,7.113v2.28h3.418v9.23h-3.418v2.279h9.533v-2.279h-3.431v-9.23
							h3.431v-2.28H3832.441z M3873.271,7.113v2.28l1.857,0.002v9.23h-1.857v2.28h11.875v-4.7h-2.479v2.42h-4.894v-3.72h3.789
							v-2.207h-3.789V9.395h4.759v2.132h2.48V7.113H3873.271z M3852.417,7.113h8.43c1.052,0,1.739,0.159,2.188,0.605
							c0.558,0.557,0.888,1.293,0.888,3.314c0,2.458-0.688,3.208-2.28,3.458v0.049c1.438,0.286,2.072,0.622,2.147,2.633v0.001
							c0.062,1.751,0.137,2.981,0.216,3.732h-2.747c-0.139-0.926-0.226-2.079-0.257-3.535c-0.023-1.078-0.155-1.338-0.409-1.558
							c-0.239-0.208-0.567-0.279-1.379-0.279h-3.944v5.371h-2.853V7.113L3852.417,7.113z M3847.709,24.016h21.001v-20h-21.001
							V24.016z M3894.118,7.119h6.795c1.948,0,3.02,0.289,3.852,1.024c0.98,0.863,1.454,2.46,1.454,5.871
							c0,3.401-0.476,5.012-1.454,5.873c-0.832,0.738-1.896,1.025-3.852,1.025h-6.795V7.119z M3889.71,24.016h20v-20h-20V24.016z
							 M3811.975,18.105l2.201-10.126c0.133-0.67,0.376-0.84,1.01-0.84h1.438c0.646,0,0.877,0.157,1.01,0.838l2.192,10.129h0.049
							l1.875-10.928h2.646l-2.705,13.131c-0.104,0.573-0.322,0.722-0.972,0.722h-1.835c-0.646,0-0.848-0.147-0.973-0.749
							l-2.062-9.516h-0.051l-2.057,9.516c-0.126,0.602-0.354,0.749-0.979,0.749h-1.854c-0.646,0-0.854-0.143-0.976-0.722
							l-2.727-13.131h2.844l1.865,10.928L3811.975,18.105L3811.975,18.105z M3805.71,24.008h21v-20h-21V24.008z"/>
					</defs>
					<clipPath id="SVGID_2_">
						<use xlink:href="#SVGID_1_"  overflow="visible"/>
					</clipPath>
					
						<linearGradient id="SVGID_3_" gradientUnits="userSpaceOnUse" x1="8198.9404" y1="-31.9932" x2="8199.7412" y2="-31.9932" gradientTransform="matrix(129.9494 0 0 129.9494 -1061642 4171.4717)">
						<stop  offset="0" style="stop-color:#FF3348"/>
						<stop  offset="0.0372" style="stop-color:#FF3947"/>
						<stop  offset="0.0851" style="stop-color:#FF4946"/>
						<stop  offset="0.1389" style="stop-color:#FF6343"/>
						<stop  offset="0.197" style="stop-color:#FF883E"/>
						<stop  offset="0.2579" style="stop-color:#FFB739"/>
						<stop  offset="0.3011" style="stop-color:#FFDD35"/>
						<stop  offset="0.583" style="stop-color:#23C2B5"/>
						<stop  offset="0.7531" style="stop-color:#1A7AFF"/>
						<stop  offset="1" style="stop-color:#8E0074"/>
					</linearGradient>
					<rect x="3805.71" y="4.008" clip-path="url(#SVGID_2_)" fill="url(#SVGID_3_)" width="104" height="20.008"/>
				</g>
			</g>
		</g>
	</g>
</g>
<polygon fill="#FFFFFF" points="3950.984,17.893 3950.984,33.71 3960.87,25.802 "/>
<rect x="3938.428" y="-0.017" width="35" height="35"/>
<polygon fill="#FFFFFF" points="3954.418,11.415 3954.418,7.049 3968.302,19.323 3957.631,14.051 "/>
<polygon fill="#FFFFFF" points="3968.302,23.64 3958.555,18.531 3949.001,11.164 3968.302,19.323 "/>
<polygon fill="#FFFFFF" points="3962.896,23.52 3949.002,11.164 3949.002,15.594 3952.439,18.171 "/>
<polygon fill="#FFFFFF" points="3943.554,15.293 3943.554,19.917 3962.896,27.917 3962.896,23.52 "/>
<rect x="3982" y="-0.326" fill="#A7A9AC" width="35" height="35"/>
<polygon fill="#FFFFFF" points="3997.99,11.105 3997.99,6.74 4011.874,19.014 4001.203,13.742 "/>
<polygon fill="#FFFFFF" points="4011.874,23.33 4002.127,18.222 3992.573,10.854 4011.874,19.014 "/>
<polygon fill="#FFFFFF" points="4006.468,23.21 3992.574,10.854 3992.574,15.285 3996.013,17.861 "/>
<polygon fill="#FFFFFF" points="3987.126,14.984 3987.126,19.607 4006.468,27.607 4006.468,23.21 "/>
<path fill="#FFFFFF" d="M4078.028,15.775c1.093,0,2.26,0.337,2.26,0.337l0.702-4.153c0,0-1.78-0.506-5.027-0.506
	c-2.172,0-3.325,0.685-4.243,1.9c-0.875,1.147-0.802,2.942-0.802,4.146v3h-3.016l0.021,3.992l2.993,0.008v14h5v-14h4l0.52-4.074
	h-4.521v-3.17C4075.911,16.165,4076.938,15.775,4078.028,15.775L4078.028,15.775z"/>
</svg>
